<svg version="1.0" xmlns="http://www.w3.org/2000/svg"
 width="501.000000pt" height="496.000000pt" viewBox="0 0 501.000000 496.000000"
 preserveAspectRatio="xMidYMid meet">
<metadata>
Designed by Philipp Machac, Copyright 2014, All Rights reserved
</metadata>
<g transform="translate(0.000000,496.000000) scale(0.100000,-0.100000)"
fill="#000000" stroke="none">
<path d="M30 2966 c0 -2 446 -445 990 -986 988 -980 991 -983 1011 -964 12 11
121 122 242 247 l221 228 -740 740 -739 739 -492 0 c-271 0 -493 -2 -493 -4z"/>
<path d="M10 2457 l0 -492 983 -983 c540 -540 988 -982 995 -982 9 0 12 105
12 488 l0 487 -988 988 c-543 543 -990 987 -995 987 -4 0 -7 -222 -7 -493z"/>
<path d="M2757 1707 l-738 -732 3 -478 3 -477 977 977 978 978 -232 232 c-128
128 -237 233 -243 233 -5 0 -342 -330 -748 -733z"/>
<path d="M3023 988 c-535 -535 -973 -976 -973 -980 0 -5 222 -8 493 -8 l493 0
964 971 c531 535 967 976 968 980 2 5 -216 9 -485 9 l-488 0 -972 -972z"/>
</g>
</svg>
