<svg version="1.0" xmlns="http://www.w3.org/2000/svg"
 width="1181.000000pt" height="912.000000pt" viewBox="0 0 1181.000000 912.000000"
 preserveAspectRatio="xMidYMid meet">
<metadata>
Designed by Philipp Machac, Copyright 2014, All Rights reserved
</metadata>
<g transform="translate(0.000000,912.000000) scale(0.100000,-0.100000)"
fill="#000000" stroke="none">
<path d="M3845 9104 c-229 -40 -437 -146 -643 -324 -54 -47 -552 -603 -1440
-1608 -746 -845 -1380 -1564 -1408 -1597 -117 -138 -225 -335 -283 -517 -122
-386 -84 -805 107 -1170 74 -143 118 -200 463 -600 278 -323 445 -517 1254
-1458 182 -212 510 -594 729 -850 220 -256 441 -506 493 -557 214 -210 450
-344 703 -399 116 -25 369 -26 492 -1 561 112 991 551 1083 1106 23 135 16
360 -13 471 -62 234 -174 428 -398 690 -54 63 -305 323 -558 577 l-459 463
3264 0 c2758 0 3280 3 3370 15 665 88 1107 483 1193 1067 66 442 -79 864 -389
1131 -150 130 -349 230 -569 287 -248 64 -25 60 -3609 60 l-3261 0 435 438
c240 240 468 474 508 520 335 386 473 719 441 1062 -58 611 -521 1102 -1130
1195 -117 18 -269 18 -375 -1z"/>
</g>
</svg>
