<svg version="1.0" xmlns="http://www.w3.org/2000/svg"
 width="1024.000000pt" height="1024.000000pt" viewBox="0 0 1024.000000 1024.000000"
 preserveAspectRatio="xMidYMid meet">
<metadata>
Designed by Philipp Machac, Copyright 2014, All Rights reserved
</metadata>
<g transform="translate(0.000000,1024.000000) scale(0.100000,-0.100000)"
fill="#000000" stroke="none">
<path d="M3705 8419 c-125 -20 -229 -74 -312 -162 -99 -105 -137 -201 -153
-393 -15 -184 -59 -625 -65 -651 -5 -21 -10 -22 -163 -25 -156 -3 -159 -3
-195 -31 -76 -58 -84 -88 -132 -504 -24 -206 -45 -376 -47 -378 -1 -1 -158 -5
-348 -8 -374 -6 -414 -11 -532 -65 -257 -118 -463 -437 -549 -850 -11 -54 -25
-122 -32 -152 -9 -41 -12 -246 -12 -785 0 -724 0 -731 22 -815 47 -175 153
-343 277 -436 81 -61 142 -91 234 -115 68 -17 112 -19 463 -19 366 0 388 -1
382 -18 -4 -9 -10 -19 -14 -22 -8 -5 -177 -549 -374 -1201 -41 -135 -75 -262
-75 -282 0 -49 31 -115 71 -155 69 -67 -158 -62 2979 -60 l2845 3 40 22 c22
11 50 32 61 45 33 35 64 108 64 148 0 20 -39 164 -86 321 -198 661 -346 1135
-360 1156 -8 12 -14 27 -14 33 0 7 124 10 378 10 416 0 449 4 567 61 162 80
305 250 368 440 48 142 49 164 44 921 -4 771 -4 776 -62 995 -76 284 -179 478
-333 625 -87 83 -171 134 -277 169 -67 22 -87 23 -432 27 l-362 3 -6 42 c-3
23 -23 197 -44 387 -22 190 -44 357 -49 371 -16 40 -63 90 -99 105 -22 9 -75
14 -161 14 l-129 0 -6 38 c-3 20 -20 181 -37 357 -16 176 -37 356 -45 400 -39
213 -188 372 -400 425 -39 10 -360 13 -1445 15 -767 1 -1417 -2 -1445 -6z
m2802 -252 c114 -39 195 -121 228 -230 9 -29 31 -207 51 -397 19 -189 44 -422
54 -517 11 -94 22 -194 25 -220 2 -26 13 -118 23 -203 11 -85 20 -162 21 -170
0 -8 4 -41 7 -72 l6 -58 -1796 0 -1796 0 5 53 c2 28 14 129 25 222 11 94 23
189 25 213 7 58 14 120 19 162 2 19 7 62 10 95 4 33 20 191 36 350 17 160 33
324 36 365 10 145 51 254 121 322 44 43 133 86 201 98 26 4 632 7 1347 6 1210
-1 1304 -2 1352 -19z m1552 -2695 c36 -19 71 -72 71 -106 0 -34 -48 -103 -84
-120 -49 -23 -531 -24 -580 -1 -70 33 -101 114 -68 174 37 68 54 71 357 71
243 0 274 -2 304 -18z m-238 -1088 c76 -23 128 -56 188 -119 93 -99 94 -100
92 -464 -2 -359 -4 -370 -76 -406 -35 -18 -64 -20 -241 -23 l-200 -3 -64 205
-63 206 -2346 0 -2346 0 -28 -92 c-16 -51 -44 -144 -63 -206 l-36 -114 -196 4
c-189 3 -199 4 -241 28 -79 45 -80 50 -82 410 -1 297 0 318 20 371 38 100 124
177 230 205 36 10 635 13 2722 13 2431 1 2680 0 2730 -15z m-559 -1269 c399
-1354 402 -1363 386 -1402 -8 -23 -27 -45 -48 -58 -35 -20 -39 -20 -2470 -23
-1949 -2 -2444 0 -2479 11 -55 16 -86 54 -84 105 0 20 55 219 121 442 66 223
180 608 252 855 72 248 133 456 135 463 4 10 416 12 2036 10 l2033 -3 118
-400z"/>
<path d="M3301 3228 c-13 -42 -51 -194 -51 -205 0 -10 3721 -6 3732 5 4 4 -1
39 -12 77 -10 39 -24 89 -30 113 l-11 42 -1809 0 -1808 0 -11 -32z"/>
<path d="M3185 2758 c-7 -22 -65 -256 -65 -265 0 -10 3971 -6 3982 5 4 4 -8
66 -26 137 l-32 130 -1927 3 c-1537 2 -1928 0 -1932 -10z"/>
<path d="M3056 2193 c-9 -33 -66 -274 -66 -281 0 -4 956 -7 2125 -7 1169 0
2125 3 2125 6 0 8 -58 255 -66 282 -5 16 -112 17 -2059 17 -1947 0 -2054 -1
-2059 -17z"/>
</g>
</svg>
