<svg version="1.0" xmlns="http://www.w3.org/2000/svg"
 width="1181.000000pt" height="912.000000pt" viewBox="0 0 1181.000000 912.000000"
 preserveAspectRatio="xMidYMid meet">
<metadata>
Designed by Philipp Machac, Copyright 2014, All Rights reserved
</metadata>
<g transform="translate(0.000000,912.000000) scale(0.100000,-0.100000)"
fill="#000000" stroke="none">
<path d="M7585 9105 c-605 -95 -1068 -587 -1125 -1195 -32 -343 106 -676 441
-1062 40 -46 268 -280 508 -520 l435 -438 -3261 0 c-3584 0 -3361 4 -3609 -60
-611 -158 -974 -611 -974 -1218 0 -613 388 -1083 1019 -1233 210 -51 65 -49
3560 -49 l3264 0 -459 -463 c-253 -254 -504 -514 -558 -577 -224 -262 -336
-456 -398 -690 -29 -111 -36 -336 -13 -471 92 -555 522 -994 1083 -1106 123
-25 376 -24 492 1 253 55 489 189 703 399 52 51 273 301 493 557 219 256 547
638 729 850 809 941 976 1135 1254 1458 345 400 389 457 463 600 191 365 229
784 107 1170 -58 182 -166 379 -283 517 -28 33 -662 752 -1408 1597 -888 1005
-1386 1561 -1440 1608 -315 273 -659 383 -1023 325z"/>
</g>
</svg>
