<svg version="1.0" xmlns="http://www.w3.org/2000/svg"
 width="501.000000pt" height="496.000000pt" viewBox="0 0 501.000000 496.000000"
 preserveAspectRatio="xMidYMid meet">
<g transform="translate(0.000000,496.000000) scale(0.100000,-0.100000)"
fill="#000000" stroke="none">
<path d="M1012 3982 c-540 -537 -982 -980 -982 -984 0 -5 221 -8 492 -8 l492
0 980 978 c540 537 983 980 984 985 2 4 -218 7 -490 7 l-493 -1 -983 -977z"/>
<path d="M3000 4453 l0 -491 998 -991 997 -991 3 493 2 493 -442 440 c-770
764 -1460 1448 -1478 1464 -9 8 -31 28 -48 44 l-32 30 0 -491z"/>
<path d="M2520 4473 c-250 -252 -687 -691 -970 -975 l-514 -518 49 -51 c28
-28 138 -136 246 -240 l196 -189 727 723 727 722 -3 493 -3 492 -455 -457z"/>
<path d="M2750 3695 l-234 -235 739 -740 740 -740 485 0 485 1 -980 974 c-539
536 -985 974 -990 975 -6 0 -116 -106 -245 -235z"/>
</g>
</svg>
