<svg version="1.0" xmlns="http://www.w3.org/2000/svg"
 width="1347.000000pt" height="1310.000000pt" viewBox="0 0 1347.000000 1310.000000"
 preserveAspectRatio="xMidYMid meet">
<g transform="translate(0.000000,1310.000000) scale(0.100000,-0.100000)"
fill="#000000" stroke="none">
<path d="M6165 12989 c-1447 -90 -2802 -654 -3870 -1611 -182 -163 -561 -548
-700 -711 -763 -895 -1239 -1937 -1404 -3077 -49 -333 -56 -459 -56 -995 0
-536 7 -662 56 -995 165 -1140 641 -2182 1404 -3077 139 -163 518 -548 700
-711 1076 -965 2422 -1522 3895 -1612 213 -13 807 -13 1020 0 1473 90 2819
647 3895 1612 182 163 561 548 700 711 763 895 1239 1937 1404 3077 49 333 56
459 56 995 0 536 -7 662 -56 995 -165 1140 -641 2182 -1404 3077 -139 163
-518 548 -700 711 -1076 965 -2422 1522 -3895 1612 -190 11 -853 11 -1045 -1z
m895 -299 c1955 -120 3701 -1077 4805 -2635 611 -863 972 -1838 1082 -2925 24
-246 24 -824 0 -1070 -102 -1006 -414 -1905 -952 -2735 l-38 -59 -22 79 c-65
244 -203 408 -496 591 -114 70 -269 154 -287 154 -22 0 -355 124 -800 296
-465 180 -831 315 -989 364 -60 18 -127 47 -163 71 -85 55 -224 191 -350 344
-155 188 -259 284 -367 336 -114 56 -197 137 -247 241 -53 113 -67 176 -73
340 -9 234 29 410 145 683 76 177 118 305 136 409 8 45 24 104 36 131 28 66
106 190 191 305 200 271 359 744 359 1071 0 116 -20 190 -65 240 -58 64 -72
202 -85 804 -13 623 -32 764 -129 960 -148 297 -442 545 -781 659 -41 13 -143
38 -226 55 -260 53 -419 116 -539 215 -77 64 -132 95 -215 121 -71 23 -443 33
-576 16 -763 -98 -1476 -551 -1846 -1173 -183 -308 -267 -626 -310 -1168 -15
-200 -15 -1001 1 -1175 22 -246 46 -315 176 -506 82 -119 145 -239 145 -274 0
-26 52 -102 124 -183 94 -106 154 -248 201 -482 37 -183 69 -280 135 -415 85
-171 103 -245 104 -430 1 -100 -3 -162 -12 -187 -19 -54 -76 -99 -172 -138
-168 -67 -294 -157 -505 -360 -77 -74 -176 -159 -220 -188 -108 -72 -349 -189
-520 -252 -307 -113 -822 -251 -1425 -380 -523 -112 -877 -205 -1006 -266 -59
-28 -100 -88 -154 -230 l-34 -86 -58 116 c-217 434 -408 1004 -502 1506 -77
406 -100 667 -100 1115 0 374 11 542 55 845 248 1708 1213 3222 2674 4197 924
616 2020 982 3150 1052 192 12 557 12 745 1z"/>
</g>
</svg>
