<svg version="1.0" xmlns="http://www.w3.org/2000/svg"
 width="1250.000000pt" height="550.000000pt" viewBox="0 0 1250.000000 550.000000"
 preserveAspectRatio="xMidYMid meet">
<metadata>
Designed by Philipp Machac, Copyright 2014, All Rights reserved
</metadata>
<g transform="translate(0.000000,550.000000) scale(0.100000,-0.100000)"
fill="#000000" stroke="none">
<path d="M2772 2751 l-2743 -2746 3475 -3 3474 -2 2744 2745 c1509 1510 2745
2748 2747 2750 2 3 -1561 5 -3475 4 l-3479 -1 -2743 -2747z m4783 1514 l25
-24 0 -650 c0 -600 -1 -652 -17 -680 l-18 -31 -480 0 c-353 1 -475 4 -461 12
10 6 26 16 35 23 9 8 42 34 73 59 l57 46 338 2 338 3 3 563 2 562 -487 0
c-391 1 -500 4 -548 15 -33 8 -100 15 -150 15 -49 0 -117 -7 -150 -15 -48 -11
-157 -14 -547 -15 l-488 0 0 -565 0 -565 351 0 352 0 36 -32 c34 -31 69 -59
116 -93 18 -13 -39 -14 -470 -15 l-490 0 -17 31 c-17 28 -18 80 -18 685 0 398
4 654 9 654 5 0 13 9 16 20 6 20 15 20 1286 20 l1280 0 24 -25z m-1647 -178
c-7 -6 -37 -30 -66 -52 -213 -159 -314 -468 -236 -717 28 -90 54 -146 89 -193
12 -16 25 -36 29 -42 6 -10 -56 -13 -293 -13 l-301 0 0 515 0 515 396 0 c317
0 393 -2 382 -13z m1482 -502 l0 -515 -290 0 -290 0 40 61 c136 211 144 441
23 682 -33 67 -151 199 -233 260 l-35 27 393 0 392 0 0 -515z m-1054 496 c5
-5 32 -12 59 -15 75 -8 228 -88 292 -153 71 -73 163 -269 163 -350 0 -13 5
-23 10 -23 12 0 13 -87 1 -94 -5 -3 -12 -27 -16 -53 -10 -67 -69 -206 -116
-273 -21 -30 -61 -70 -89 -88 -55 -36 -168 -91 -197 -97 -10 -2 -18 -4 -18 -5
0 -1 -22 -3 -50 -6 -27 -3 -51 -9 -53 -14 -5 -13 -85 -13 -98 -1 -5 5 -29 12
-54 15 -25 2 -45 5 -45 6 0 1 -10 3 -23 6 -36 6 -162 71 -214 109 -26 19 -64
60 -86 92 -45 67 -98 191 -108 251 -4 23 -10 42 -15 42 -5 0 -9 32 -9 70 0 39
4 70 9 70 5 0 11 19 15 41 9 55 70 202 106 254 16 23 44 56 63 72 54 48 210
122 270 128 28 4 54 11 55 16 5 12 135 12 148 0z m-236 -1247 c25 -9 88 -18
140 -21 77 -5 111 -2 179 16 66 16 115 21 218 21 l133 0 0 -35 0 -35 -495 0
-495 0 0 35 0 35 138 0 c99 0 149 -5 182 -16z m998 -114 c120 -42 187 -83 273
-169 88 -88 138 -171 180 -301 l30 -91 -3 -384 -3 -384 -30 -31 c-79 -83 -308
-75 -369 12 -14 19 -16 66 -16 315 l0 293 -25 0 -25 0 0 -524 0 -525 -835 0
-835 0 0 525 0 524 -25 0 -25 0 0 -299 0 -299 -31 -26 c-97 -82 -349 -66 -397
25 -9 18 -12 114 -9 414 l3 390 27 80 c38 114 91 199 177 285 87 87 152 128
270 169 l85 30 749 0 750 0 84 -29z"/>
</g>
</svg>
