<svg version="1.0" xmlns="http://www.w3.org/2000/svg"
 width="1250.000000pt" height="550.000000pt" viewBox="0 0 1250.000000 550.000000"
 preserveAspectRatio="xMidYMid meet">
<g transform="translate(0.000000,550.000000) scale(0.100000,-0.100000)"
fill="#000000" stroke="none">
<path d="M31 5495 c2 -2 1238 -1240 2747 -2750 l2744 -2745 3474 2 3475 3
-2746 2748 -2747 2747 -3475 0 c-1912 0 -3474 -2 -3472 -5z m6864 -815 c235
-73 423 -253 500 -479 67 -199 51 -404 -48 -595 -58 -113 -190 -245 -303 -303
-143 -74 -296 -103 -441 -83 -267 36 -481 193 -593 435 -53 113 -65 171 -65
315 0 142 19 222 81 341 106 202 306 348 532 389 80 15 258 4 337 -20z m-1664
-1350 c525 -41 1036 -156 1356 -305 l97 -46 113 51 c153 68 312 121 501 169
265 66 668 125 912 133 l85 3 3 -1092 2 -1091 -77 -7 c-580 -46 -969 -128
-1356 -286 -157 -63 -191 -64 -323 -9 -333 139 -799 247 -1204 280 -201 17
-261 24 -260 33 0 4 0 495 0 1092 0 597 4 1085 8 1085 4 0 69 -5 143 -10z
m-313 -1009 l2 -432 -31 18 c-87 51 -193 165 -230 248 -67 151 -35 355 75 482
40 46 153 126 170 120 8 -3 12 -135 14 -436z m3702 320 c180 -180 182 -465 6
-644 -64 -64 -142 -121 -156 -112 -6 4 -10 163 -10 436 l0 429 52 -26 c29 -14
77 -52 108 -83z"/>
<path d="M5332 2227 l3 -842 181 -21 c336 -41 658 -110 929 -199 77 -25 146
-49 153 -51 10 -5 12 157 10 803 l-3 808 -50 27 c-212 116 -618 228 -1040 288
-82 11 -158 22 -168 24 -16 4 -17 -39 -15 -837z m380 573 c170 -24 327 -59
528 -117 220 -63 204 -52 208 -151 2 -45 0 -82 -4 -82 -4 0 -63 18 -131 40
-243 79 -534 143 -711 157 -48 3 -90 11 -94 17 -4 6 -8 44 -8 84 l0 72 38 0
c20 0 99 -9 174 -20z m88 -291 c132 -22 405 -89 555 -137 l90 -28 3 -87 c2
-53 -1 -87 -7 -87 -6 0 -33 9 -61 20 -153 60 -517 148 -705 170 -55 6 -116 15
-135 19 l-35 7 -3 78 -3 79 88 -6 c48 -4 144 -16 213 -28z m-123 -264 c65 -9
174 -27 243 -41 140 -29 497 -129 517 -146 15 -12 19 -168 5 -168 -5 0 -65 18
-133 41 -224 74 -529 140 -724 157 l-80 7 -3 83 -3 82 30 0 c17 0 83 -7 148
-15z m141 -300 c160 -28 359 -78 520 -130 l112 -36 0 -85 c0 -46 -3 -84 -7
-84 -5 0 -55 16 -113 36 -214 72 -532 145 -706 160 -125 11 -124 10 -124 100
l0 77 90 -7 c49 -4 152 -18 228 -31z m-149 -260 c68 -9 178 -27 245 -41 176
-37 487 -124 524 -147 15 -10 17 -167 1 -167 -5 0 -57 16 -115 35 -225 76
-543 146 -734 163 l-85 7 -3 83 c-3 97 -20 90 167 67z"/>
<path d="M7885 3044 c-434 -67 -769 -156 -1002 -269 l-113 -54 0 -799 c0 -439
2 -801 5 -804 3 -3 42 8 88 24 298 107 785 210 1100 234 l87 7 0 838 0 839
-37 -1 c-21 -1 -78 -7 -128 -15z m-20 -274 c3 -5 3 -21 -1 -35 -4 -18 -13 -25
-31 -25 -13 0 -34 -5 -45 -11 -17 -9 -18 -13 -7 -20 8 -5 23 -9 35 -9 28 0 64
-36 64 -65 0 -61 -49 -107 -126 -120 -48 -7 -68 9 -58 49 5 22 12 26 44 26 36
0 67 20 53 33 -3 4 -16 7 -28 7 -30 0 -73 35 -77 63 -2 12 -14 -25 -27 -83
-13 -58 -29 -110 -35 -117 -6 -6 -24 -13 -41 -15 -28 -3 -30 0 -42 46 -7 26
-14 50 -17 53 -2 3 -7 -20 -11 -50 -9 -68 -12 -74 -56 -82 l-36 -7 -23 94
c-24 96 -39 138 -40 106 0 -11 -15 -20 -50 -28 -61 -15 -66 -33 -7 -28 41 3
42 2 45 -28 3 -30 0 -32 -42 -43 -30 -7 -46 -17 -46 -27 0 -12 7 -14 33 -8 57
12 62 11 65 -23 3 -29 0 -33 -35 -42 -21 -5 -57 -15 -81 -21 -23 -6 -47 -8
-52 -5 -6 4 -10 62 -10 135 l0 129 38 10 c20 5 56 15 80 21 23 6 46 8 51 5 5
-3 11 -1 13 4 1 5 18 12 35 16 35 7 42 -1 59 -70 7 -28 8 -26 21 32 11 48 19
62 36 67 47 13 57 8 63 -34 10 -59 22 -58 30 1 6 45 11 53 37 64 32 13 61 10
51 -6 -3 -5 -1 -9 5 -9 5 0 13 5 17 11 22 37 132 66 149 39z m-707 -297 l3
-132 -38 -10 c-20 -6 -38 -9 -39 -8 -1 1 -20 31 -43 67 l-41 65 0 -77 c0 -74
-1 -78 -24 -84 -14 -3 -30 -3 -35 1 -7 4 -11 55 -11 134 l0 129 40 10 40 10
35 -56 35 -56 0 62 c0 56 3 64 23 72 49 20 52 14 55 -127z m720 -299 l3 -81
-83 -6 c-183 -13 -463 -74 -709 -153 -77 -25 -144 -42 -149 -39 -6 3 -10 42
-10 85 l0 79 113 35 c300 94 657 168 787 163 l45 -2 3 -81z m2 -273 c0 -88 -3
-91 -82 -91 -116 0 -512 -87 -732 -161 -68 -22 -123 -36 -128 -31 -5 5 -8 44
-6 86 l3 77 105 35 c259 84 616 159 778 163 l62 1 0 -79z m-2 -287 l3 -81 -84
-6 c-184 -15 -483 -80 -725 -158 -67 -22 -127 -37 -132 -34 -6 3 -10 42 -10
85 l0 79 113 35 c303 94 657 168 787 163 l45 -2 3 -81z"/>
</g>
</svg>
