<svg version="1.0" xmlns="http://www.w3.org/2000/svg"
 width="1250.000000pt" height="550.000000pt" viewBox="0 0 1250.000000 550.000000"
 preserveAspectRatio="xMidYMid meet">
<metadata>
Designed by Philipp Machac, Copyright 2014, All Rights reserved
</metadata>
<g transform="translate(0.000000,550.000000) scale(0.100000,-0.100000)"
fill="#000000" stroke="none">
<path d="M31 5495 c2 -2 1238 -1240 2747 -2750 l2744 -2745 3474 2 3475 3
-2746 2748 -2747 2747 -3475 0 c-1912 0 -3474 -2 -3472 -5z m6864 -815 c235
-73 423 -253 500 -479 67 -199 51 -404 -48 -595 -58 -113 -190 -245 -303 -303
-143 -74 -296 -103 -441 -83 -267 36 -481 193 -593 435 -53 113 -65 171 -65
315 0 142 19 222 81 341 106 202 306 348 532 389 80 15 258 4 337 -20z m1405
-2540 l0 -1000 -1615 0 -1615 0 0 1000 0 1000 1615 0 1615 0 0 -1000z m-3382
181 l2 -432 -31 18 c-87 51 -193 165 -230 248 -67 151 -35 355 75 482 40 46
153 126 170 120 8 -3 12 -135 14 -436z m3702 320 c180 -180 182 -465 6 -644
-64 -64 -142 -121 -156 -112 -6 4 -10 163 -10 436 l0 429 52 -26 c29 -14 77
-52 108 -83z"/>
<path d="M5320 2140 l0 -750 1365 0 1365 0 0 750 0 750 -1365 0 -1365 0 0
-750z m309 669 c32 -19 33 -22 17 -37 -13 -14 -20 -14 -36 -4 -11 6 -26 12
-34 12 -35 0 -25 -25 28 -74 67 -62 77 -92 43 -132 -20 -23 -33 -29 -65 -29
-49 0 -100 39 -81 62 15 17 34 17 49 -2 16 -20 44 -19 61 1 11 14 6 23 -44 68
-53 48 -63 65 -59 108 2 18 46 47 72 48 8 0 30 -9 49 -21z m141 -127 c0 -72
10 -92 46 -92 28 0 34 17 34 96 0 62 1 64 25 64 24 0 25 -2 25 -70 0 -80 -12
-113 -47 -129 -48 -22 -103 -6 -122 36 -6 13 -11 55 -11 93 0 68 1 70 25 70
24 0 25 -2 25 -68z m240 54 c0 -12 4 -12 30 1 66 32 130 -14 130 -94 0 -75
-72 -124 -132 -90 l-28 16 0 -54 c0 -52 -1 -55 -25 -55 l-25 0 0 145 0 145 25
0 c15 0 25 -6 25 -14z m260 0 c0 -12 4 -12 30 1 66 32 130 -14 130 -94 0 -75
-72 -124 -132 -90 l-28 16 0 -54 c0 -52 -1 -55 -25 -55 l-25 0 0 145 0 145 25
0 c15 0 25 -6 25 -14z m555 0 c33 -14 65 -59 65 -91 0 -12 -15 -15 -85 -15
-47 0 -85 -4 -85 -9 0 -22 32 -34 78 -28 60 7 80 -3 53 -27 -28 -26 -83 -31
-123 -12 -59 28 -76 100 -37 150 36 46 77 55 134 32z m285 0 c0 -12 4 -12 30
1 66 32 130 -14 130 -94 0 -75 -72 -124 -132 -90 l-28 16 0 -54 c0 -52 -1 -55
-25 -55 l-25 0 0 145 0 145 25 0 c15 0 25 -6 25 -14z m436 2 c22 -10 28 -10
32 0 2 6 12 12 23 12 18 0 19 -8 19 -105 0 -97 -1 -105 -19 -105 -11 0 -21 5
-23 12 -3 9 -11 9 -35 -1 -110 -45 -187 127 -82 185 30 17 51 17 85 2z m196 1
c3 -9 10 -9 27 0 28 16 78 5 91 -19 6 -10 10 -55 10 -99 0 -79 -1 -81 -25 -81
-23 0 -24 3 -27 78 -3 72 -5 77 -26 80 -40 6 -52 -14 -52 -89 0 -67 -1 -69
-25 -69 l-25 0 0 105 c0 104 0 105 24 105 13 0 26 -5 28 -11z m278 -829 l0
-490 -1335 0 -1335 0 0 490 0 490 1335 0 1335 0 0 -490z"/>
<path d="M5360 2280 l0 -110 290 0 290 0 0 110 0 110 -290 0 -290 0 0 -110z"/>
<path d="M5950 2280 l0 -110 310 0 310 0 0 110 0 110 -310 0 -310 0 0 -110z"/>
<path d="M6580 2280 l0 -110 475 0 475 0 0 110 0 110 -475 0 -475 0 0 -110z"/>
<path d="M7540 2280 l0 -110 235 0 235 0 0 110 0 110 -235 0 -235 0 0 -110z"/>
<path d="M5360 2070 l0 -90 290 0 290 0 0 90 0 90 -290 0 -290 0 0 -90z"/>
<path d="M5950 2070 l0 -90 310 0 310 0 0 90 0 90 -310 0 -310 0 0 -90z"/>
<path d="M6580 2070 l0 -90 475 0 475 0 0 90 0 90 -475 0 -475 0 0 -90z"/>
<path d="M7540 2070 l0 -90 235 0 235 0 0 90 0 90 -235 0 -235 0 0 -90z"/>
<path d="M5360 1880 l0 -90 290 0 290 0 0 90 0 90 -290 0 -290 0 0 -90z"/>
<path d="M5950 1880 l0 -90 310 0 310 0 0 90 0 90 -310 0 -310 0 0 -90z"/>
<path d="M6580 1880 l0 -90 475 0 475 0 0 90 0 90 -475 0 -475 0 0 -90z"/>
<path d="M7540 1880 l0 -90 235 0 235 0 0 90 0 90 -235 0 -235 0 0 -90z"/>
<path d="M5360 1690 l0 -90 290 0 290 0 0 90 0 90 -290 0 -290 0 0 -90z"/>
<path d="M5950 1690 l0 -90 310 0 310 0 0 90 0 90 -310 0 -310 0 0 -90z"/>
<path d="M6580 1690 l0 -90 475 0 475 0 0 90 0 90 -475 0 -475 0 0 -90z"/>
<path d="M7540 1690 l0 -90 235 0 235 0 0 90 0 90 -235 0 -235 0 0 -90z"/>
<path d="M5360 1510 l0 -80 290 0 290 0 0 80 0 80 -290 0 -290 0 0 -80z"/>
<path d="M5950 1510 l0 -80 310 0 310 0 0 80 0 80 -310 0 -310 0 0 -80z"/>
<path d="M6580 1510 l0 -80 475 0 475 0 0 80 0 80 -475 0 -475 0 0 -80z"/>
<path d="M7540 1510 l0 -80 235 0 235 0 0 80 0 80 -235 0 -235 0 0 -80z"/>
</g>
</svg>
