<svg version="1.0" xmlns="http://www.w3.org/2000/svg"
 width="1250.000000pt" height="550.000000pt" viewBox="0 0 1250.000000 550.000000"
 preserveAspectRatio="xMidYMid meet">
<g transform="translate(0.000000,550.000000) scale(0.100000,-0.100000)"
fill="#000000" stroke="none">
<path d="M2772 2751 l-2743 -2746 3475 -3 3474 -2 2744 2745 c1509 1510 2745
2748 2747 2750 2 3 -1561 5 -3475 4 l-3479 -1 -2743 -2747z m3343 1929 c235
-73 423 -253 500 -479 67 -199 51 -404 -48 -595 -58 -113 -190 -245 -303 -303
-143 -74 -296 -103 -441 -83 -267 36 -481 193 -593 435 -53 113 -65 171 -65
315 0 142 19 222 81 341 106 202 306 348 532 389 80 15 258 4 337 -20z m1405
-2540 l0 -1000 -1615 0 -1615 0 0 1000 0 1000 1615 0 1615 0 0 -1000z m-3382
181 l2 -432 -31 18 c-87 51 -193 165 -230 248 -67 151 -35 355 75 482 40 46
153 126 170 120 8 -3 12 -135 14 -436z m3702 320 c180 -180 182 -465 6 -644
-64 -64 -142 -121 -156 -112 -6 4 -10 163 -10 436 l0 429 52 -26 c29 -14 77
-52 108 -83z"/>
<path d="M4540 2140 l0 -750 1365 0 1365 0 0 750 0 750 -1365 0 -1365 0 0
-750z m622 528 l3 -183 2 183 c2 110 7 182 13 182 6 0 10 -69 10 -180 l0 -180
245 0 245 0 0 180 c0 113 4 180 10 180 6 0 11 -69 12 -182 l3 -183 2 183 c2
110 7 182 13 182 6 0 10 -69 10 -180 l0 -180 240 0 240 0 0 180 c0 113 4 180
10 180 6 0 11 -69 12 -182 l3 -183 2 183 c2 110 7 182 13 182 6 0 10 -69 10
-180 l0 -180 255 0 255 0 0 180 c0 113 4 180 10 180 6 0 11 -69 12 -182 l3
-183 2 183 c2 110 7 182 13 182 6 0 10 -69 10 -180 l0 -180 215 0 c137 0 215
-4 215 -10 0 -6 -81 -11 -217 -12 l-218 -3 218 -2 c133 -2 217 -7 217 -13 0
-6 -81 -10 -215 -10 l-215 0 0 -170 0 -170 215 0 c137 0 215 -4 215 -10 0 -6
-78 -10 -215 -10 l-215 0 0 -180 0 -180 215 0 c137 0 215 -4 215 -10 0 -6 -78
-10 -215 -10 l-215 0 0 -140 c0 -87 -4 -140 -10 -140 -6 0 -11 56 -12 143 l-2
142 -3 -142 c-5 -189 -23 -191 -23 -3 l0 140 -255 0 -255 0 0 -140 c0 -87 -4
-140 -10 -140 -6 0 -11 56 -12 143 l-2 142 -3 -142 c-5 -189 -23 -191 -23 -3
l0 140 -240 0 -240 0 0 -140 c0 -87 -4 -140 -10 -140 -6 0 -11 56 -12 143 l-2
142 -3 -142 c-5 -189 -23 -191 -23 -3 l0 140 -245 0 -245 0 0 -140 c0 -87 -4
-140 -10 -140 -6 0 -11 56 -12 143 l-2 142 -3 -142 c-5 -189 -23 -191 -23 -3
l0 140 -290 0 c-187 0 -290 4 -290 10 0 6 103 10 290 10 l290 0 0 180 0 180
-290 0 c-187 0 -290 4 -290 10 0 6 103 10 290 10 l290 0 0 170 0 170 -290 0
c-187 0 -290 4 -290 10 0 6 106 11 293 12 l292 3 -292 2 c-184 2 -293 7 -293
13 0 6 106 10 290 10 l290 0 0 180 c0 113 4 180 10 180 6 0 11 -69 12 -182z
m-442 67 c13 -41 26 -75 30 -75 3 0 16 34 28 75 20 67 25 75 46 75 27 0 27 1
46 -130 6 -41 14 -83 16 -92 4 -14 -1 -18 -19 -18 -23 0 -26 5 -32 53 -12 85
-21 89 -42 17 -16 -55 -23 -65 -43 -68 -23 -3 -27 3 -44 63 -10 36 -22 65 -26
65 -4 0 -11 -28 -16 -62 -8 -54 -12 -63 -31 -66 -27 -4 -27 -10 -8 103 23 136
23 135 48 135 20 0 27 -10 47 -75z m742 36 c22 -25 28 -41 28 -77 0 -87 -41
-124 -136 -124 l-44 0 0 121 0 122 62 -6 c54 -5 67 -10 90 -36z m428 -36 c13
-41 26 -75 30 -75 3 0 16 34 28 75 20 67 25 75 46 75 27 0 27 1 46 -130 6 -41
14 -83 16 -92 4 -14 -1 -18 -19 -18 -23 0 -26 5 -32 53 -12 85 -21 89 -42 17
-16 -55 -23 -65 -43 -68 -23 -3 -27 3 -44 63 -10 36 -22 65 -26 65 -4 0 -11
-28 -16 -62 -8 -54 -12 -63 -31 -66 -27 -4 -27 -10 -8 103 23 136 23 135 48
135 20 0 27 -10 47 -75z m592 36 c22 -25 28 -41 28 -77 0 -87 -41 -124 -136
-124 l-44 0 0 121 0 122 62 -6 c54 -5 67 -10 90 -36z m548 19 c0 -16 -7 -20
-35 -20 -31 0 -35 -3 -35 -25 0 -22 4 -25 35 -25 28 0 35 -4 35 -20 0 -16 -7
-20 -35 -20 l-35 0 0 -55 c0 -48 -2 -55 -20 -55 -19 0 -20 7 -20 120 l0 120
55 0 c48 0 55 -2 55 -20z m-1986 -50 c15 -5 34 -25 43 -45 16 -33 16 -37 0
-70 -33 -69 -125 -71 -161 -4 -17 32 -18 40 -6 68 21 51 71 71 124 51z m1630
0 c15 -5 34 -25 43 -45 16 -33 16 -37 0 -70 -33 -69 -125 -71 -161 -4 -17 32
-18 40 -6 68 21 51 71 71 124 51z"/>
<path d="M5190 2270 l0 -170 245 0 245 0 0 170 0 170 -245 0 -245 0 0 -170z"/>
<path d="M5730 2270 l0 -170 240 0 240 0 0 170 0 170 -240 0 -240 0 0 -170z"/>
<path d="M6260 2270 l0 -170 255 0 255 0 0 170 0 170 -255 0 -255 0 0 -170z"/>
<path d="M5190 1900 l0 -180 245 0 245 0 0 180 0 180 -245 0 -245 0 0 -180z"/>
<path d="M5730 1900 l0 -180 240 0 240 0 0 180 0 180 -240 0 -240 0 0 -180z"/>
<path d="M6260 1900 l0 -180 255 0 255 0 0 180 0 180 -255 0 -255 0 0 -180z"/>
</g>
</svg>
