<?xml version="1.0" encoding="UTF-8" standalone="no"?>
<!DOCTYPE svg PUBLIC "-//W3C//DTD SVG 1.1//EN"
 "http://www.w3.org/Graphics/SVG/1.1/DTD/svg11.dtd">
<!-- Generated by graphviz version 2.34.0 (20131023.0131)
 -->
<!-- Title: database Pages: 1 -->
<svg width="196pt" height="260pt"
 viewBox="0.00 0.00 196.00 260.00" xmlns="http://www.w3.org/2000/svg" xmlns:xlink="http://www.w3.org/1999/xlink">
<g id="graph0" class="graph" transform="scale(1 1) rotate(0) translate(4 256)">
<title>database</title>
<polygon fill="white" stroke="white" points="-4,4 -4,-256 192,-256 192,4 -4,4"/>
<!-- Abteilungen -->
<g id="node1" class="node"><title>Abteilungen</title>
<polygon fill="none" stroke="black" points="187.5,-252 104.5,-252 104.5,-216 187.5,-216 187.5,-252"/>
<text text-anchor="middle" x="146" y="-230.3" font-family="Times,serif" font-size="14.00">Abteilungen</text>
</g>
<!-- Lehrer -->
<g id="node2" class="node"><title>Lehrer</title>
<polygon fill="none" stroke="black" points="173,-198 119,-198 119,-162 173,-162 173,-198"/>
<text text-anchor="middle" x="146" y="-176.3" font-family="Times,serif" font-size="14.00">Lehrer</text>
</g>
<!-- Abteilungen&#45;&gt;Lehrer -->
<g id="edge1" class="edge"><title>Abteilungen&#45;&gt;Lehrer</title>
<path fill="none" stroke="black" d="M146,-215.79C146,-213.308 146,-210.826 146,-208.344"/>
<polygon fill="black" stroke="black" points="149.5,-208.141 146,-198.141 142.5,-208.141 149.5,-208.141"/>
</g>
<!-- Monitore -->
<g id="node3" class="node"><title>Monitore</title>
<polygon fill="none" stroke="black" points="68,-117 0,-117 0,-81 68,-81 68,-117"/>
<text text-anchor="middle" x="34" y="-95.3" font-family="Times,serif" font-size="14.00">Monitore</text>
</g>
<!-- Monitore&#45;&gt;Abteilungen -->
<g id="edge2" class="edge"><title>Monitore&#45;&gt;Abteilungen</title>
<path fill="none" stroke="black" d="M43.5323,-117.054C54.9621,-139.908 76.9705,-179.594 104,-207 104.778,-207.789 105.583,-208.567 106.409,-209.334"/>
<polygon fill="black" stroke="black" points="104.387,-212.204 114.316,-215.901 108.859,-206.819 104.387,-212.204"/>
</g>
<!-- MonitorTyp -->
<g id="node4" class="node"><title>MonitorTyp</title>
<polygon fill="none" stroke="black" points="187.5,-144 104.5,-144 104.5,-108 187.5,-108 187.5,-144"/>
<text text-anchor="middle" x="146" y="-122.3" font-family="Times,serif" font-size="14.00">MonitorTyp</text>
</g>
<!-- Monitore&#45;&gt;MonitorTyp -->
<g id="edge3" class="edge"><title>Monitore&#45;&gt;MonitorTyp</title>
<path fill="none" stroke="black" d="M68.0036,-107.101C76.2799,-109.132 85.3518,-111.359 94.2729,-113.549"/>
<polygon fill="black" stroke="black" points="93.6845,-117.008 104.231,-115.993 95.3532,-110.21 93.6845,-117.008"/>
</g>
<!-- DisplayTyp -->
<g id="node5" class="node"><title>DisplayTyp</title>
<polygon fill="none" stroke="black" points="186,-90 106,-90 106,-54 186,-54 186,-90"/>
<text text-anchor="middle" x="146" y="-68.3" font-family="Times,serif" font-size="14.00">DisplayTyp</text>
</g>
<!-- Monitore&#45;&gt;DisplayTyp -->
<g id="edge4" class="edge"><title>Monitore&#45;&gt;DisplayTyp</title>
<path fill="none" stroke="black" d="M68.0036,-90.8991C76.8337,-88.7317 86.5693,-86.3421 96.0612,-84.0122"/>
<polygon fill="black" stroke="black" points="96.939,-87.4008 105.816,-81.6178 95.2703,-80.6026 96.939,-87.4008"/>
</g>
<!-- Räume -->
<g id="node6" class="node"><title>Räume</title>
<polygon fill="none" stroke="black" points="174,-36 118,-36 118,-0 174,-0 174,-36"/>
<text text-anchor="middle" x="146" y="-14.3" font-family="Times,serif" font-size="14.00">Räume</text>
</g>
<!-- Monitore&#45;&gt;Räume -->
<g id="edge5" class="edge"><title>Monitore&#45;&gt;Räume</title>
<path fill="none" stroke="black" d="M57.3311,-80.7722C70.6698,-70.0749 88.0659,-56.4526 104,-45 105.799,-43.7067 107.656,-42.3976 109.54,-41.0892"/>
<polygon fill="black" stroke="black" points="111.585,-43.9309 117.881,-35.4091 107.645,-38.1452 111.585,-43.9309"/>
</g>
</g>
</svg>
