<?xml version="1.0" encoding="UTF-8" standalone="no"?>
<!DOCTYPE svg PUBLIC "-//W3C//DTD SVG 1.1//EN"
 "http://www.w3.org/Graphics/SVG/1.1/DTD/svg11.dtd">
<!-- Generated by graphviz version 2.34.0 (20131023.0131)
 -->
<!-- Title: database Pages: 1 -->
<svg width="370pt" height="442pt"
 viewBox="0.00 0.00 370.00 442.00" xmlns="http://www.w3.org/2000/svg" xmlns:xlink="http://www.w3.org/1999/xlink">
<g id="graph0" class="graph" transform="scale(1 1) rotate(0) translate(4 438)">
<title>database</title>
<polygon fill="white" stroke="white" points="-4,4 -4,-438 366,-438 366,4 -4,4"/>
<!-- Abteilungen -->
<g id="node1" class="node"><title>Abteilungen</title>
<polygon fill="none" stroke="black" points="361.5,-166 278.5,-166 278.5,-130 361.5,-130 361.5,-166"/>
<text text-anchor="middle" x="320" y="-144.3" font-family="Times,serif" font-size="14.00">Abteilungen</text>
</g>
<!-- Lehrer -->
<g id="node2" class="node"><title>Lehrer</title>
<polygon fill="none" stroke="black" points="347,-97 293,-97 293,-61 347,-61 347,-97"/>
<text text-anchor="middle" x="320" y="-75.3" font-family="Times,serif" font-size="14.00">Lehrer</text>
</g>
<!-- Abteilungen&#45;&gt;Lehrer -->
<g id="edge1" class="edge"><title>Abteilungen&#45;&gt;Lehrer</title>
<path fill="none" stroke="black" d="M320,-129.693C320,-122.214 320,-114.736 320,-107.257"/>
<polygon fill="black" stroke="black" points="323.5,-107.059 320,-97.0586 316.5,-107.059 323.5,-107.059"/>
</g>
<!-- Klassen -->
<g id="node3" class="node"><title>Klassen</title>
<polygon fill="none" stroke="black" points="216.5,-166 157.5,-166 157.5,-130 216.5,-130 216.5,-166"/>
<text text-anchor="middle" x="187" y="-144.3" font-family="Times,serif" font-size="14.00">Klassen</text>
</g>
<!-- Klassen&#45;&gt;Abteilungen -->
<g id="edge2" class="edge"><title>Klassen&#45;&gt;Abteilungen</title>
<path fill="none" stroke="black" d="M216.749,-148C231.859,-148 250.827,-148 268.31,-148"/>
<polygon fill="black" stroke="black" points="268.392,-151.5 278.392,-148 268.392,-144.5 268.392,-151.5"/>
</g>
<!-- Klassen&#45;&gt;Lehrer -->
<g id="edge3" class="edge"><title>Klassen&#45;&gt;Lehrer</title>
<path fill="none" stroke="black" d="M216.749,-132.858C236.562,-122.422 263.009,-108.491 284.042,-97.4128"/>
<polygon fill="black" stroke="black" points="285.769,-100.459 292.985,-92.7024 282.506,-94.266 285.769,-100.459"/>
</g>
<!-- Räume -->
<g id="node4" class="node"><title>Räume</title>
<polygon fill="none" stroke="black" points="348,-266 292,-266 292,-230 348,-230 348,-266"/>
<text text-anchor="middle" x="320" y="-244.3" font-family="Times,serif" font-size="14.00">Räume</text>
</g>
<!-- Klassen&#45;&gt;Räume -->
<g id="edge4" class="edge"><title>Klassen&#45;&gt;Räume</title>
<path fill="none" stroke="black" d="M216.646,-160.369C225.107,-164.533 234.189,-169.527 242,-175 261.655,-188.772 281.249,-207.435 295.752,-222.442"/>
<polygon fill="black" stroke="black" points="293.421,-225.071 302.845,-229.912 298.497,-220.25 293.421,-225.071"/>
</g>
<!-- BasisStunden -->
<g id="node5" class="node"><title>BasisStunden</title>
<polygon fill="none" stroke="black" points="93,-189 3,-189 3,-153 93,-153 93,-189"/>
<text text-anchor="middle" x="48" y="-167.3" font-family="Times,serif" font-size="14.00">BasisStunden</text>
</g>
<!-- BasisStunden&#45;&gt;Klassen -->
<g id="edge5" class="edge"><title>BasisStunden&#45;&gt;Klassen</title>
<path fill="none" stroke="black" d="M93.1018,-163.596C110.462,-160.682 130.227,-157.363 147.051,-154.539"/>
<polygon fill="black" stroke="black" points="147.815,-157.96 157.098,-152.852 146.656,-151.056 147.815,-157.96"/>
</g>
<!-- Zeiten -->
<g id="node6" class="node"><title>Zeiten</title>
<polygon fill="none" stroke="black" points="347,-361 293,-361 293,-325 347,-325 347,-361"/>
<text text-anchor="middle" x="320" y="-339.3" font-family="Times,serif" font-size="14.00">Zeiten</text>
</g>
<!-- BasisStunden&#45;&gt;Zeiten -->
<g id="edge6" class="edge"><title>BasisStunden&#45;&gt;Zeiten</title>
<path fill="none" stroke="black" d="M74.1476,-189.184C90.4626,-200.829 112.279,-216.116 132,-229 184.087,-263.028 245.988,-300.132 283.877,-322.477"/>
<polygon fill="black" stroke="black" points="282.578,-325.773 292.972,-327.829 286.128,-319.74 282.578,-325.773"/>
</g>
<!-- Stunden -->
<g id="node7" class="node"><title>Stunden</title>
<polygon fill="none" stroke="black" points="78.5,-266 17.5,-266 17.5,-230 78.5,-230 78.5,-266"/>
<text text-anchor="middle" x="48" y="-244.3" font-family="Times,serif" font-size="14.00">Stunden</text>
</g>
<!-- Stunden&#45;&gt;Lehrer -->
<g id="edge7" class="edge"><title>Stunden&#45;&gt;Lehrer</title>
<path fill="none" stroke="black" d="M69.9445,-229.697C78.993,-220.874 89.0711,-209.681 96,-198 122.243,-153.757 91.0896,-119.184 132,-88 175.37,-54.9405 242.216,-61.3492 283.136,-69.692"/>
<polygon fill="black" stroke="black" points="282.435,-73.1213 292.951,-71.8319 283.926,-66.282 282.435,-73.1213"/>
</g>
<!-- Stunden&#45;&gt;Räume -->
<g id="edge8" class="edge"><title>Stunden&#45;&gt;Räume</title>
<path fill="none" stroke="black" d="M78.6671,-248C128.112,-248 227.28,-248 281.494,-248"/>
<polygon fill="black" stroke="black" points="281.71,-251.5 291.71,-248 281.71,-244.5 281.71,-251.5"/>
</g>
<!-- Stunden&#45;&gt;BasisStunden -->
<g id="edge9" class="edge"><title>Stunden&#45;&gt;BasisStunden</title>
<path fill="none" stroke="black" d="M48,-229.577C48,-219.445 48,-209.312 48,-199.179"/>
<polygon fill="black" stroke="black" points="51.5001,-199.047 48,-189.047 44.5001,-199.047 51.5001,-199.047"/>
</g>
<!-- Fächer -->
<g id="node8" class="node"><title>Fächer</title>
<polygon fill="none" stroke="black" points="347,-418 293,-418 293,-382 347,-382 347,-418"/>
<text text-anchor="middle" x="320" y="-396.3" font-family="Times,serif" font-size="14.00">Fächer</text>
</g>
<!-- Stunden&#45;&gt;Fächer -->
<g id="edge10" class="edge"><title>Stunden&#45;&gt;Fächer</title>
<path fill="none" stroke="black" d="M76.7544,-266.054C92.7441,-276.287 113.317,-289.169 132,-300 184.118,-330.214 246.011,-362.659 283.889,-382.139"/>
<polygon fill="black" stroke="black" points="282.486,-385.353 292.981,-386.803 285.681,-379.125 282.486,-385.353"/>
</g>
<!-- Supplierungen -->
<g id="node9" class="node"><title>Supplierungen</title>
<polygon fill="none" stroke="black" points="95.5,-380 0.5,-380 0.5,-344 95.5,-344 95.5,-380"/>
<text text-anchor="middle" x="48" y="-358.3" font-family="Times,serif" font-size="14.00">Supplierungen</text>
</g>
<!-- Supplierungen&#45;&gt;Lehrer -->
<g id="edge11" class="edge"><title>Supplierungen&#45;&gt;Lehrer</title>
<path fill="none" stroke="black" d="M60.7687,-343.678C71.325,-326.526 86.5646,-299.88 96,-275 120.924,-209.278 82.0817,-170.485 132,-121 142.667,-110.426 231.313,-93.8741 282.633,-85.0374"/>
<polygon fill="black" stroke="black" points="283.401,-88.4569 292.67,-83.3253 282.224,-81.5566 283.401,-88.4569"/>
</g>
<!-- Supplierungen&#45;&gt;Räume -->
<g id="edge12" class="edge"><title>Supplierungen&#45;&gt;Räume</title>
<path fill="none" stroke="black" d="M91.7823,-343.936C144.337,-321.746 232.609,-284.476 282.242,-263.52"/>
<polygon fill="black" stroke="black" points="283.781,-266.67 291.632,-259.555 281.058,-260.221 283.781,-266.67"/>
</g>
<!-- Supplierungen&#45;&gt;Zeiten -->
<g id="edge13" class="edge"><title>Supplierungen&#45;&gt;Zeiten</title>
<path fill="none" stroke="black" d="M95.7222,-358.712C148.875,-354.972 234.539,-348.944 282.845,-345.544"/>
<polygon fill="black" stroke="black" points="283.118,-349.034 292.848,-344.84 282.627,-342.051 283.118,-349.034"/>
</g>
<!-- Supplierungen&#45;&gt;Stunden -->
<g id="edge14" class="edge"><title>Supplierungen&#45;&gt;Stunden</title>
<path fill="none" stroke="black" d="M48,-343.674C48,-321.296 48,-298.918 48,-276.54"/>
<polygon fill="black" stroke="black" points="51.5001,-276.258 48,-266.258 44.5001,-276.258 51.5001,-276.258"/>
</g>
<!-- Supplierungen&#45;&gt;Fächer -->
<g id="edge15" class="edge"><title>Supplierungen&#45;&gt;Fächer</title>
<path fill="none" stroke="black" d="M95.7222,-368.576C148.875,-376.056 234.539,-388.113 282.845,-394.912"/>
<polygon fill="black" stroke="black" points="282.457,-398.391 292.848,-396.319 283.433,-391.46 282.457,-398.391"/>
</g>
<!-- fehlende Lehrer -->
<g id="node10" class="node"><title>fehlende Lehrer</title>
<polygon fill="none" stroke="black" points="238.5,-36 135.5,-36 135.5,-0 238.5,-0 238.5,-36"/>
<text text-anchor="middle" x="187" y="-14.3" font-family="Times,serif" font-size="14.00">fehlende Lehrer</text>
</g>
<!-- fehlende Lehrer&#45;&gt;Lehrer -->
<g id="edge16" class="edge"><title>fehlende Lehrer&#45;&gt;Lehrer</title>
<path fill="none" stroke="black" d="M226.95,-36.1369C244.895,-44.4931 266.041,-54.3397 283.537,-62.4867"/>
<polygon fill="black" stroke="black" points="282.295,-65.7693 292.838,-66.8178 285.25,-59.4236 282.295,-65.7693"/>
</g>
<!-- fehlende Klassen -->
<g id="node11" class="node"><title>fehlende Klassen</title>
<polygon fill="none" stroke="black" points="242,-220 132,-220 132,-184 242,-184 242,-220"/>
<text text-anchor="middle" x="187" y="-198.3" font-family="Times,serif" font-size="14.00">fehlende Klassen</text>
</g>
<!-- fehlende Klassen&#45;&gt;Klassen -->
<g id="edge17" class="edge"><title>fehlende Klassen&#45;&gt;Klassen</title>
<path fill="none" stroke="black" d="M187,-183.79C187,-181.308 187,-178.826 187,-176.344"/>
<polygon fill="black" stroke="black" points="190.5,-176.141 187,-166.141 183.5,-176.141 190.5,-176.141"/>
</g>
<!-- News -->
<g id="node12" class="node"><title>News</title>
<polygon fill="none" stroke="black" points="75,-434 21,-434 21,-398 75,-398 75,-434"/>
<text text-anchor="middle" x="48" y="-412.3" font-family="Times,serif" font-size="14.00">News</text>
</g>
</g>
</svg>
