<svg version="1.0" xmlns="http://www.w3.org/2000/svg"
 width="1250.000000pt" height="550.000000pt" viewBox="0 0 1250.000000 550.000000"
 preserveAspectRatio="xMidYMid meet">
<g transform="translate(0.000000,550.000000) scale(0.100000,-0.100000)"
fill="#000000" stroke="none">
<path d="M31 5495 c2 -2 1238 -1240 2747 -2750 l2744 -2745 3474 2 3475 3
-2746 2748 -2747 2747 -3475 0 c-1912 0 -3474 -2 -3472 -5z m5969 -1975 c0
-198 -1 -360 -3 -360 -1 0 -20 9 -42 20 -85 44 -184 14 -240 -72 l-17 -28
-304 0 -303 0 -15 28 c-47 90 -176 117 -268 56 l-38 -24 0 370 0 370 615 0
615 0 0 -360z m1892 -20 c2 -209 0 -380 -3 -380 -3 0 -14 10 -25 21 -25 28
-91 59 -128 59 -72 0 -153 -48 -171 -102 -6 -17 -28 -18 -283 -18 l-277 0 -40
49 c-40 48 -88 71 -150 71 -34 0 -94 -26 -122 -52 l-23 -21 0 376 0 377 610 0
610 0 2 -380z m-2897 -370 c35 -22 75 -86 75 -121 0 -33 -40 -96 -76 -119 -42
-28 -121 -27 -165 3 -46 30 -71 81 -65 131 6 52 32 86 87 114 50 26 93 23 144
-8z m960 1 c34 -19 75 -84 75 -119 0 -37 -37 -98 -73 -121 -45 -28 -120 -28
-165 -1 -43 26 -75 97 -67 144 9 46 52 94 100 111 45 16 85 12 130 -14z m904
19 c43 -12 88 -54 107 -100 13 -31 13 -39 -1 -76 -25 -67 -65 -97 -132 -101
-68 -5 -111 16 -143 69 -53 88 16 208 125 217 6 1 26 -3 44 -9z m941 -12 c54
-28 80 -62 86 -114 18 -147 -194 -214 -277 -88 -38 57 -19 152 37 189 60 39
96 42 154 13z m-2342 -207 c151 -77 151 -285 0 -362 -71 -36 -188 -20 -247 34
-76 70 -80 208 -8 286 55 59 180 80 255 42z m980 4 c49 -21 81 -52 103 -100
35 -75 16 -179 -42 -232 -77 -70 -222 -70 -297 0 -82 76 -82 218 0 294 55 51
162 68 236 38z m1013 -8 c24 -13 58 -43 74 -66 26 -37 30 -51 30 -111 0 -60
-4 -74 -30 -111 -75 -107 -230 -121 -328 -30 -43 39 -60 80 -60 141 0 81 39
142 118 183 47 25 143 22 196 -6z m-2349 -168 c-5 -79 18 -140 74 -196 l43
-43 -324 0 -325 0 0 108 c0 121 7 139 68 172 33 17 59 19 252 20 l215 0 -3
-61z m988 -7 c0 -78 31 -154 81 -196 16 -14 29 -27 29 -30 0 -3 -153 -6 -340
-6 -187 0 -340 3 -340 6 0 4 14 22 31 42 49 56 69 108 69 185 l0 67 235 0 235
0 0 -68z m976 53 c15 -10 20 -22 17 -40 -7 -36 14 -113 43 -157 13 -21 24 -49
24 -63 l0 -25 -330 0 -329 0 43 43 c56 56 79 117 74 196 l-3 61 220 0 c177 0
225 -3 241 -15z m933 -10 c64 -40 71 -56 71 -172 l0 -103 -292 0 -291 0 38 37
c58 56 88 131 83 204 l-4 59 178 0 c172 0 180 -1 217 -25z m-2296 -336 c104
-52 117 -81 117 -259 l0 -140 -475 0 -475 0 0 150 0 150 38 42 c69 76 75 78
435 78 304 0 320 -1 360 -21z m997 0 c105 -47 120 -80 120 -259 l0 -140 -480
0 -480 0 0 140 c0 179 15 212 120 259 42 19 64 21 360 21 296 0 318 -2 360
-21z m1005 -3 c48 -22 82 -52 101 -88 5 -9 8 -82 6 -162 l-3 -146 -475 0 -474
0 0 140 c0 177 13 205 115 258 38 20 56 21 360 21 316 1 321 0 370 -23z m435
-641 l0 -175 -1800 0 -1800 0 0 175 0 175 1800 0 1800 0 0 -175z"/>
</g>
</svg>
