<svg version="1.0" xmlns="http://www.w3.org/2000/svg"
 width="1250.000000pt" height="550.000000pt" viewBox="0 0 1250.000000 550.000000"
 preserveAspectRatio="xMidYMid meet">
<g transform="translate(0.000000,550.000000) scale(0.100000,-0.100000)"
fill="#000000" stroke="none">
<path d="M2772 2751 l-2743 -2746 3475 -3 3474 -2 2744 2745 c1509 1510 2745
2748 2747 2750 2 3 -1561 5 -3475 4 l-3479 -1 -2743 -2747z m3303 1844 c177
-45 332 -165 413 -321 52 -101 72 -183 72 -299 0 -175 -61 -325 -179 -444
-120 -120 -253 -179 -421 -188 -195 -10 -341 47 -480 187 -96 96 -138 168
-170 294 -85 336 127 688 466 770 79 19 226 20 299 1z m-568 -1719 c136 -286
213 -460 213 -480 0 -17 -16 -137 -35 -266 -19 -129 -35 -248 -35 -265 0 -22
29 -68 113 -180 l112 -150 45 0 44 0 124 145 123 145 -5 70 c-3 39 -19 167
-35 285 l-30 215 212 467 212 467 84 1 c154 0 277 -49 391 -157 75 -70 120
-141 158 -245 l27 -73 3 -726 c3 -818 4 -810 -69 -957 -48 -97 -134 -192 -219
-240 -30 -18 -58 -32 -62 -32 -5 0 -8 371 -8 825 l0 825 -70 0 -70 0 -2 -847
-3 -848 -780 -3 c-429 -1 -795 0 -812 3 l-33 6 0 844 0 845 -65 0 -65 0 0
-819 c0 -451 -4 -822 -8 -825 -15 -9 -129 73 -184 132 -67 72 -113 158 -138
258 -19 73 -20 113 -20 798 0 808 -1 788 72 929 52 101 140 190 235 240 99 52
161 66 272 64 l95 -2 213 -449z m519 379 c107 -63 124 -205 33 -291 -47 -45
-46 -19 -4 -324 14 -96 29 -209 35 -250 43 -316 59 -432 65 -477 l7 -53 -117
-140 c-64 -77 -120 -140 -125 -140 -5 0 -56 65 -115 145 l-106 145 10 72 c6
40 29 197 51 348 85 580 92 634 80 638 -22 8 -71 55 -85 83 -19 36 -19 132 -1
167 18 35 64 78 96 91 49 19 130 13 176 -14z"/>
</g>
</svg>
