<svg version="1.0" xmlns="http://www.w3.org/2000/svg"
 width="1250.000000pt" height="550.000000pt" viewBox="0 0 1250.000000 550.000000"
 preserveAspectRatio="xMidYMid meet">
<metadata>
Designed by Philipp Machac, Copyright 2014, All Rights reserved
</metadata>
<g transform="translate(0.000000,550.000000) scale(0.100000,-0.100000)"
fill="#000000" stroke="none">
<path d="M2772 2751 l-2743 -2746 3475 -3 3474 -2 2744 2745 c1509 1510 2745
2748 2747 2750 2 3 -1561 5 -3475 4 l-3479 -1 -2743 -2747z m3058 752 l0 -376
-23 21 c-28 26 -88 52 -122 52 -62 0 -110 -23 -150 -71 l-40 -49 -277 0 c-255
0 -277 1 -283 18 -18 54 -99 102 -171 102 -37 0 -103 -31 -128 -59 -11 -11
-22 -21 -25 -21 -3 0 -5 171 -3 380 l2 380 610 0 610 0 0 -377z m1900 7 l0
-370 -37 24 c-93 61 -222 34 -269 -56 l-15 -28 -303 0 -304 0 -17 28 c-56 86
-155 116 -240 72 -22 -11 -41 -20 -42 -20 -2 0 -3 162 -3 360 l0 360 615 0
615 0 0 -370z m-2882 -382 c41 -25 62 -65 62 -120 0 -81 -60 -138 -146 -138
-91 0 -160 71 -150 154 6 52 32 86 87 114 50 26 93 23 147 -10z m912 3 c92
-66 91 -183 -2 -242 -26 -16 -45 -19 -91 -16 -67 4 -107 34 -132 101 -14 37
-14 45 -1 76 18 43 64 88 102 100 38 12 93 3 124 -19z m942 3 c64 -33 90 -110
59 -178 -50 -114 -214 -117 -271 -5 -25 48 -25 70 -1 118 24 45 39 59 88 77
40 14 81 10 125 -12z m948 4 c54 -28 80 -62 86 -114 10 -83 -59 -154 -150
-154 -61 0 -100 23 -133 77 -29 47 -29 75 -1 124 23 41 54 66 97 79 41 13 54
11 101 -12z m-2407 -204 c80 -40 120 -102 120 -184 0 -116 -88 -200 -211 -200
-75 0 -136 31 -177 89 -26 37 -30 51 -30 111 0 60 4 74 30 111 41 58 102 89
177 89 34 0 72 -7 91 -16z m995 1 c76 -32 122 -102 122 -185 0 -116 -88 -200
-210 -200 -89 0 -157 41 -191 115 -33 72 -19 166 34 224 52 57 167 78 245 46z
m990 0 c75 -32 122 -103 122 -185 0 -118 -88 -200 -215 -200 -219 0 -285 281
-90 383 39 21 135 21 183 2z m-2336 -174 c-5 -73 25 -148 83 -204 l38 -37
-291 0 -292 0 0 103 c0 115 7 131 68 172 36 23 44 24 218 24 l180 1 -4 -59z
m1000 -2 c-5 -79 18 -140 74 -196 l43 -43 -329 0 -330 0 0 25 c0 14 11 42 24
63 29 44 50 121 43 157 -9 50 15 55 258 55 l220 0 -3 -61z m988 -6 c0 -77 20
-129 69 -185 17 -20 31 -38 31 -42 0 -3 -153 -6 -340 -6 -187 0 -340 3 -340 6
0 3 13 16 29 30 50 42 81 118 81 196 l0 68 235 0 235 0 0 -67z m980 47 c63
-32 70 -50 70 -172 l0 -108 -325 0 -324 0 43 43 c56 56 79 117 74 196 l-3 61
213 0 c193 0 216 -2 252 -20z m-2337 -341 c104 -52 117 -81 117 -259 l0 -140
-474 0 -475 0 -3 146 c-2 80 1 153 6 162 19 36 53 66 101 88 49 23 55 24 368
24 304 0 320 -1 360 -21z m997 0 c105 -47 120 -80 120 -259 l0 -140 -480 0
-480 0 0 140 c0 179 15 212 120 259 42 19 64 21 360 21 296 0 318 -2 360 -21z
m995 2 c22 -10 57 -37 78 -59 l37 -42 0 -150 0 -150 -475 0 -475 0 0 140 c0
177 13 205 115 258 38 20 56 21 360 21 289 1 324 -1 360 -18z m445 -646 l0
-175 -1800 0 -1800 0 0 175 0 175 1800 0 1800 0 0 -175z"/>
</g>
</svg>
