<svg version="1.0" xmlns="http://www.w3.org/2000/svg"
 width="1250.000000pt" height="550.000000pt" viewBox="0 0 1250.000000 550.000000"
 preserveAspectRatio="xMidYMid meet">
<metadata>
Designed by Philipp Machac, Copyright 2014, All Rights reserved
</metadata>
<g transform="translate(0.000000,550.000000) scale(0.100000,-0.100000)"
fill="#000000" stroke="none">
<path d="M5020 4999 c-272 -274 -501 -498 -507 -498 -7 -1 -13 -6 -13 -12 0
-6 -1006 -1017 -2235 -2247 l-2235 -2237 3473 -3 3474 -2 500 500 c276 275
506 500 512 500 6 0 11 5 11 11 0 6 1005 1016 2233 2245 1227 1229 2234 2237
2236 2239 2 3 -1561 4 -3475 4 l-3479 -2 -495 -498z m1390 -609 c656 -68 1196
-496 1406 -1113 66 -193 79 -276 79 -527 0 -251 -13 -334 -79 -527 -187 -549
-644 -958 -1211 -1083 -355 -78 -741 -31 -1071 131 -471 230 -798 664 -901
1194 -24 126 -24 444 0 570 41 212 136 449 244 615 335 510 938 801 1533 740z"/>
<path d="M6065 4189 c-241 -32 -495 -137 -691 -285 -97 -73 -257 -242 -322
-339 -107 -161 -191 -363 -229 -552 -27 -134 -24 -415 5 -549 123 -569 533
-996 1085 -1129 770 -187 1549 281 1747 1050 110 426 20 880 -245 1232 -215
287 -517 478 -874 553 -112 24 -367 34 -476 19z m315 -274 l0 -125 -125 0
-125 0 0 125 0 125 125 0 125 0 0 -125z m-748 -103 c24 -15 131 -164 516 -719
110 -159 115 -163 176 -193 l64 -30 331 0 331 0 36 -33 c64 -58 55 -152 -19
-197 -30 -19 -52 -20 -359 -20 -320 0 -328 0 -370 -22 -108 -57 -233 3 -254
121 -6 35 -64 120 -482 716 -138 198 -162 238 -162 273 0 37 30 91 59 107 36
20 101 18 133 -3z m-412 -1067 l0 -125 -124 0 -125 0 -3 125 -3 125 128 0 127
0 0 -125z m2320 0 l0 -125 -125 0 -125 0 0 125 0 125 125 0 125 0 0 -125z
m-1160 -1190 l0 -125 -125 0 -125 0 0 125 0 125 125 0 125 0 0 -125z"/>
</g>
</svg>
