<svg version="1.0" xmlns="http://www.w3.org/2000/svg"
 width="1250.000000pt" height="550.000000pt" viewBox="0 0 1250.000000 550.000000"
 preserveAspectRatio="xMidYMid meet">
<metadata>
Designed by Philipp Machac, Copyright 2014, All Rights reserved
</metadata>
<g transform="translate(0.000000,550.000000) scale(0.100000,-0.100000)"
fill="#000000" stroke="none">
<path d="M31 5495 c2 -2 1238 -1240 2747 -2750 l2744 -2745 3474 2 3475 3
-2746 2748 -2747 2747 -3475 0 c-1912 0 -3474 -2 -3472 -5z m5344 -1053 c181
-90 318 -228 413 -417 28 -57 65 -165 59 -172 -8 -7 -777 -176 -782 -171 -5 4
125 540 186 771 12 45 14 44 124 -11z m-338 -3 c52 -9 63 -14 59 -28 -20 -64
-226 -905 -226 -920 0 -8 11 -6 410 84 140 32 310 70 377 84 l122 27 6 -80
c21 -264 -85 -530 -288 -722 -307 -290 -766 -326 -1123 -89 -84 56 -188 158
-244 240 -176 255 -203 608 -70 892 123 262 355 446 640 507 80 18 251 20 337
5z m1253 -359 l0 -100 -100 0 -100 0 0 100 0 100 100 0 100 0 0 -100z m658 72
c36 -23 33 -142 -4 -156 -49 -19 -74 8 -74 79 0 71 34 104 78 77z m-658 -454
l0 -103 -100 0 -100 0 0 103 0 102 100 0 100 0 0 -102z m658 64 c36 -23 33
-142 -4 -156 -49 -19 -74 8 -74 79 0 71 34 104 78 77z m1921 -732 c32 -33 64
-60 70 -60 6 0 10 -4 9 -8 -4 -10 149 -162 162 -162 6 0 9 -4 8 -8 -2 -5 12
-23 30 -41 31 -31 32 -35 17 -51 -9 -10 -39 -28 -67 -40 -42 -18 -64 -21 -122
-17 -39 3 -78 7 -87 9 -11 2 -65 -55 -161 -171 l-145 -175 21 -45 c31 -70 28
-161 -9 -229 -85 -157 -285 -189 -412 -66 l-45 43 -221 -50 c-121 -27 -222
-49 -224 -49 -1 0 -3 -28 -3 -62 -1 -141 -99 -251 -236 -265 -63 -7 -130 10
-175 43 -39 28 -20 38 -284 -143 l-200 -138 -7 -50 c-19 -136 -101 -225 -229
-249 -89 -16 -210 42 -263 127 -32 52 -46 154 -28 205 l10 30 -174 116 c-96
64 -178 116 -183 116 -5 0 -14 -6 -20 -14 -7 -8 -33 -24 -59 -36 -94 -45 -210
-25 -295 49 -20 18 -41 31 -46 29 -5 -1 -103 -57 -218 -123 l-209 -120 0 -85
c1 -90 -17 -142 -62 -183 -20 -19 -23 -16 -205 166 l-185 186 22 20 c80 75
240 80 338 9 l42 -31 61 33 c58 31 174 98 318 183 l67 39 0 62 c1 107 65 204
162 246 42 18 64 21 119 17 37 -3 78 -11 91 -18 115 -60 172 -183 145 -311
l-8 -38 177 -115 177 -116 21 20 c98 93 283 75 375 -35 17 -21 35 -34 43 -31
11 5 63 40 288 196 25 17 64 44 86 60 l41 29 -14 57 c-26 102 8 194 98 265
103 81 236 73 344 -21 l35 -31 222 49 223 49 6 70 c4 39 13 84 22 100 22 43
82 101 130 126 57 31 165 31 223 1 l41 -22 141 170 141 170 -29 40 c-61 85
-60 214 1 298 17 22 33 41 35 41 3 0 31 -27 63 -60z"/>
</g>
</svg>
