<svg version="1.0" xmlns="http://www.w3.org/2000/svg"
 width="1250.000000pt" height="550.000000pt" viewBox="0 0 1250.000000 550.000000"
 preserveAspectRatio="xMidYMid meet">
<metadata>
Designed by Philipp Machac, Copyright 2014, All Rights reserved
</metadata>
<g transform="translate(0.000000,550.000000) scale(0.100000,-0.100000)"
fill="#000000" stroke="none">
<path d="M31 5495 c2 -2 1238 -1240 2747 -2750 l2744 -2745 3474 2 3475 3
-2746 2748 -2747 2747 -3475 0 c-1912 0 -3474 -2 -3472 -5z m7836 -2177 c1014
-1014 1843 -1850 1843 -1858 0 -23 -851 -870 -875 -870 -13 0 -181 161 -482
462 l-463 463 -275 -275 -275 -275 -117 118 -118 117 -377 -377 -378 -378
-382 383 -383 382 245 245 245 245 -878 878 c-577 577 -877 884 -877 897 0 28
1657 1685 1685 1685 13 0 640 -620 1862 -1842z"/>
<path d="M5601 4696 l-404 -404 296 -297 c164 -163 294 -301 291 -307 -9 -14
107 -130 124 -123 7 2 28 -11 47 -30 18 -19 37 -35 42 -35 5 0 31 23 58 50 27
28 54 50 60 50 13 0 125 112 125 125 0 14 205 217 211 211 3 -3 34 24 69 59
36 36 60 65 55 65 -5 0 44 54 110 120 l120 120 -400 400 -400 400 -404 -404z"/>
<path d="M6723 4145 c-65 -67 -117 -113 -125 -110 -17 7 -133 -109 -123 -124
4 -7 -14 -30 -41 -56 -27 -24 -46 -45 -43 -47 2 -2 105 -102 227 -223 l222
-220 220 220 c121 121 220 224 220 230 0 10 -431 445 -440 445 -3 -1 -55 -52
-117 -115z"/>
<path d="M4767 3862 l-387 -387 400 -400 400 -400 385 385 c212 212 385 390
385 395 0 6 -16 26 -35 45 -19 18 -32 37 -30 41 6 8 -114 125 -124 122 -4 -1
-140 131 -302 293 -161 162 -296 294 -299 294 -3 0 -179 -174 -393 -388z"/>
<path d="M7092 3557 l-223 -223 31 -29 c17 -16 29 -34 26 -41 -6 -14 104 -124
125 -124 8 0 65 -51 127 -113 l111 -113 226 226 225 225 -208 208 c-114 114
-209 207 -212 207 -3 0 -105 -100 -228 -223z"/>
<path d="M6310 3725 c-23 -23 -37 -31 -45 -25 -8 6 -31 -11 -74 -54 -42 -43
-59 -66 -51 -71 8 -5 -6 -26 -44 -64 l-56 -57 25 -24 c14 -13 23 -31 20 -40
-6 -18 110 -138 122 -127 8 9 823 -802 823 -818 0 -16 119 -130 127 -122 4 4
59 -45 124 -109 l116 -116 46 49 46 48 23 -23 22 -22 -72 -73 -72 -72 75 -75
c41 -41 73 -80 71 -86 -5 -14 104 -124 124 -124 8 0 52 -37 97 -82 l83 -82 58
57 c32 31 62 57 67 57 13 0 125 112 125 125 0 6 25 35 55 65 l55 54 -85 86
c-47 47 -82 89 -78 93 9 10 -109 128 -123 123 -17 -7 -219 200 -204 209 17 11
-99 127 -121 122 -22 -6 -146 117 -129 128 8 5 -9 28 -51 71 -42 42 -66 60
-74 54 -7 -6 -60 40 -163 143 -118 118 -151 157 -146 171 10 26 -104 140 -124
124 -11 -9 -66 41 -280 255 -147 147 -270 267 -273 267 -3 0 -20 -16 -39 -35z"/>
<path d="M5601 3023 l-384 -385 449 -449 449 -449 387 387 388 388 -356 356
c-195 195 -354 360 -352 366 5 16 -111 133 -125 127 -7 -2 -24 7 -37 21 -13
14 -26 25 -29 24 -3 0 -179 -174 -390 -386z"/>
<path d="M7552 3097 c-194 -195 -221 -225 -208 -236 9 -8 16 -21 16 -30 0 -20
110 -131 130 -131 8 0 30 -16 50 -35 l36 -35 224 225 225 225 -120 120 c-66
66 -122 120 -125 120 -3 0 -106 -100 -228 -223z"/>
<path d="M7836 2806 c-121 -122 -222 -228 -224 -235 -7 -20 106 -130 127 -124
10 2 118 105 242 229 l224 224 -65 65 c-35 36 -69 64 -75 64 -5 -1 -109 -101
-229 -223z"/>
<path d="M8020 2635 l-225 -225 74 -74 c46 -47 72 -80 68 -89 -7 -19 118 -144
128 -127 5 8 36 -16 94 -74 l86 -86 225 225 225 225 -225 225 -225 225 -225
-225z"/>
<path d="M6837 2382 c-48 -48 -87 -92 -87 -97 0 -13 402 -415 415 -415 6 0 51
41 100 90 l90 90 -114 114 c-73 74 -112 119 -108 129 7 20 -115 141 -129 127
-7 -7 -19 0 -39 20 -16 16 -31 30 -35 30 -3 0 -45 -39 -93 -88z"/>
<path d="M8433 2058 c-240 -240 -305 -300 -315 -290 -18 18 -143 -105 -126
-125 9 -11 3 -22 -25 -51 l-37 -38 450 -447 c247 -246 453 -447 457 -447 5 0
188 180 408 400 l400 400 -450 450 c-247 248 -452 450 -455 450 -3 0 -141
-136 -307 -302z"/>
<path d="M6187 1723 l-517 -518 208 -208 209 -209 53 56 c37 39 57 53 64 46
14 -14 135 106 129 129 -3 10 40 60 127 145 l131 130 -96 96 c-52 52 -95 100
-95 105 0 13 282 295 295 295 5 0 53 -43 105 -95 l96 -95 112 112 112 112
-207 208 -208 208 -518 -517z"/>
<path d="M6856 1471 c-269 -269 -494 -487 -500 -485 -15 6 -130 -111 -123
-123 3 -5 -19 -34 -49 -64 l-54 -53 107 -108 108 -108 377 377 378 378 118
-118 117 -117 230 230 230 230 -82 82 c-62 63 -81 88 -77 103 7 29 -112 147
-126 125 -8 -12 -24 0 -87 62 l-78 78 -489 -489z"/>
</g>
</svg>
