<svg version="1.0" xmlns="http://www.w3.org/2000/svg"
 width="1250.000000pt" height="550.000000pt" viewBox="0 0 1250.000000 550.000000"
 preserveAspectRatio="xMidYMid meet">
<metadata>
Designed by Philipp Machac, Copyright 2014, All Rights reserved
</metadata>
<g transform="translate(0.000000,550.000000) scale(0.100000,-0.100000)"
fill="#000000" stroke="none">
<path d="M2772 2751 l-2743 -2746 3475 -3 3474 -2 2744 2745 c1509 1510 2745
2748 2747 2750 2 3 -1561 5 -3475 4 l-3479 -1 -2743 -2747z m3589 1607 c55
-18 105 -56 136 -101 l28 -42 0 -355 0 -355 -28 -42 c-31 -45 -81 -83 -136
-101 -23 -8 -123 -12 -302 -12 l-269 0 0 -235 0 -235 810 0 810 0 0 -335 0
-335 198 0 c192 0 200 -1 249 -26 60 -29 117 -88 144 -148 16 -36 19 -67 19
-241 0 -174 -3 -205 -19 -241 -27 -60 -84 -119 -144 -148 l-51 -26 -460 0
c-429 0 -464 2 -502 19 -60 27 -119 84 -148 144 -25 50 -26 56 -26 251 0 175
3 206 19 242 27 60 84 119 144 148 49 25 57 26 244 26 l193 0 0 265 0 265
-740 0 -740 0 0 -265 0 -265 203 0 c198 0 204 -1 254 -26 60 -29 117 -88 144
-148 16 -36 19 -67 19 -242 0 -195 -1 -201 -26 -251 -29 -60 -88 -117 -148
-144 -38 -17 -72 -19 -501 -19 -429 0 -463 2 -501 19 -60 27 -119 84 -148 144
-25 50 -26 56 -26 251 0 175 3 206 19 242 27 60 84 119 144 148 49 25 57 26
239 26 l188 0 0 265 0 265 -730 0 -730 0 0 -265 0 -265 193 0 c187 0 195 -1
244 -26 60 -29 117 -88 144 -148 16 -36 19 -67 19 -242 0 -195 -1 -201 -26
-251 -29 -60 -88 -117 -148 -144 -38 -17 -72 -19 -501 -19 -429 0 -463 2 -501
19 -60 27 -119 84 -148 144 -25 50 -26 56 -26 251 0 175 3 206 19 242 27 60
84 119 144 148 49 25 57 26 249 26 l198 0 0 335 0 335 800 0 800 0 0 235 0
235 -284 0 c-190 0 -294 4 -317 12 -55 18 -105 56 -136 101 l-28 42 0 355 0
355 29 43 c29 42 75 77 131 99 43 16 1268 18 1316 1z"/>
<path d="M5180 4030 l0 -50 525 0 525 0 0 50 0 50 -525 0 -525 0 0 -50z"/>
<path d="M5180 3690 l0 -50 525 0 525 0 0 50 0 50 -525 0 -525 0 0 -50z"/>
</g>
</svg>
