<svg version="1.0" xmlns="http://www.w3.org/2000/svg"
 width="1250.000000pt" height="550.000000pt" viewBox="0 0 1250.000000 550.000000"
 preserveAspectRatio="xMidYMid meet">
<metadata>
Designed by Philipp Machac, Copyright 2014, All Rights reserved
</metadata>
<g transform="translate(0.000000,550.000000) scale(0.100000,-0.100000)"
fill="#000000" stroke="none">
<path d="M31 5495 c2 -2 1238 -1240 2747 -2750 l2744 -2745 3474 2 3475 3
-2746 2748 -2747 2747 -3475 0 c-1912 0 -3474 -2 -3472 -5z m6897 -894 c47
-24 70 -50 88 -98 20 -57 19 -1210 -1 -1268 -8 -21 -13 -41 -11 -42 2 -2 113
-28 247 -58 236 -54 245 -57 277 -90 27 -30 32 -42 32 -85 0 -48 -3 -54 -80
-145 l-81 -95 35 0 c49 0 83 -18 108 -58 18 -29 20 -42 14 -95 -4 -34 -7 -70
-6 -79 7 -76 0 -153 -19 -218 -27 -90 -24 -187 8 -268 26 -64 27 -129 4 -162
-38 -54 -797 -977 -829 -1008 -62 -59 -73 -57 -744 157 -413 132 -604 198
-632 217 -95 66 -148 176 -155 324 -5 83 -2 105 20 169 l24 74 -20 56 c-24 65
-35 269 -19 338 l10 43 -98 0 c-90 0 -101 2 -128 25 -24 20 -41 25 -83 25
-232 1 -444 191 -481 431 -34 226 99 460 307 541 l40 16 3 290 2 290 -30 30
c-41 41 -37 94 9 129 21 16 300 18 335 2 51 -24 57 -101 10 -138 l-24 -19 0
-288 0 -289 74 -37 c50 -25 76 -33 79 -25 2 7 5 61 6 120 2 102 0 112 -34 198
-20 51 -35 103 -33 118 5 45 34 51 253 51 277 0 280 -3 220 -158 -33 -85 -35
-99 -35 -204 l0 -113 71 -168 c40 -93 75 -165 79 -160 4 4 57 64 118 132 l111
123 -39 37 c-22 21 -42 52 -49 76 -17 63 -14 1208 3 1258 17 47 40 73 86 98
33 17 67 18 478 19 415 0 445 -1 480 -19z"/>
<path d="M6007 4482 c-14 -16 -17 -44 -17 -180 0 -149 2 -164 20 -182 19 -19
33 -20 440 -20 407 0 421 1 440 20 18 18 20 33 20 183 0 146 -2 166 -18 180
-17 15 -62 17 -444 17 -399 0 -426 -1 -441 -18z m833 -59 c20 -25 21 -38 18
-129 -4 -132 -6 -134 -119 -134 -115 0 -119 5 -119 147 0 135 7 143 119 143
75 0 81 -2 101 -27z"/>
<path d="M6680 4305 l0 -85 55 0 55 0 0 85 0 85 -55 0 -55 0 0 -85z"/>
<path d="M6027 3977 c-30 -11 -37 -25 -37 -78 0 -70 15 -83 103 -87 70 -4 78
-2 101 21 30 30 35 89 11 124 -12 18 -27 22 -86 25 -39 2 -80 -1 -92 -5z"/>
<path d="M6408 3982 c-25 -2 -52 -9 -58 -17 -6 -7 -12 -37 -12 -66 -2 -72 20
-89 112 -89 89 0 109 15 112 87 3 80 -21 94 -154 85z"/>
<path d="M6720 3978 c-46 -17 -55 -104 -14 -145 23 -23 31 -25 101 -21 89 4
103 17 103 89 0 50 -17 78 -48 80 -72 4 -126 3 -142 -3z"/>
<path d="M4762 3954 c-32 -22 -26 -64 11 -82 l27 -13 0 -323 0 -324 -27 -7
c-50 -12 -160 -84 -203 -132 -89 -100 -134 -252 -113 -379 34 -197 193 -356
384 -383 72 -10 85 -5 64 25 -10 15 -29 23 -64 27 -105 13 -219 89 -278 189
-35 57 -70 176 -60 202 6 14 38 16 262 15 141 -1 260 2 264 7 7 8 111 246 141
322 17 44 -1 61 -112 106 l-38 15 0 321 0 320 24 10 c49 18 55 77 10 94 -8 3
-73 6 -143 6 -100 0 -131 -3 -149 -16z"/>
<path d="M6025 3688 c-11 -6 -23 -16 -27 -22 -10 -14 -10 -98 0 -113 12 -20
60 -33 118 -33 71 0 104 28 104 90 0 64 -32 90 -112 90 -35 0 -72 -6 -83 -12z"/>
<path d="M6372 3690 c-28 -12 -40 -43 -36 -94 6 -61 22 -71 114 -71 99 0 115
12 114 86 -1 69 -17 83 -102 86 -37 2 -77 -2 -90 -7z"/>
<path d="M6723 3690 c-45 -18 -59 -99 -24 -141 16 -20 29 -24 81 -26 64 -2
109 9 122 30 4 7 8 32 8 57 0 25 -4 50 -8 57 -19 29 -128 44 -179 23z"/>
<path d="M5198 3639 c-25 -14 -23 -36 12 -126 27 -71 30 -88 30 -197 l0 -119
-104 -256 c-57 -141 -127 -307 -155 -369 -28 -63 -51 -127 -51 -144 0 -50 21
-106 56 -146 l32 -37 92 -4 c70 -2 95 0 101 10 16 26 9 29 -65 29 -65 0 -78 3
-105 26 -21 17 -36 44 -47 81 -14 49 -14 59 -1 96 13 38 126 291 146 327 7 13
48 15 261 18 160 1 257 -1 265 -8 8 -7 17 -5 28 8 14 16 9 31 -53 187 l-69
170 -1 122 c0 109 3 131 30 210 44 131 50 127 -191 130 -120 2 -201 -1 -211
-8z"/>
<path d="M6010 3390 c-27 -27 -28 -110 -2 -133 23 -21 56 -22 71 -3 9 11 6 16
-19 24 -25 9 -30 16 -30 42 0 39 26 50 95 41 61 -8 85 -4 85 14 0 24 -35 35
-109 35 -58 0 -75 -4 -91 -20z"/>
<path d="M6707 3397 c-20 -14 -32 -74 -23 -110 7 -29 64 -47 144 -47 63 0 82
20 82 83 0 71 -21 87 -113 87 -43 0 -80 -5 -90 -13z"/>
<path d="M6161 3283 c-57 -56 -822 -911 -864 -967 -59 -76 -80 -162 -75 -309
3 -107 7 -129 30 -180 l28 -58 -28 -52 c-25 -48 -27 -61 -27 -167 0 -98 4
-122 23 -164 28 -62 82 -128 125 -154 37 -23 1217 -402 1250 -402 13 0 32 7
44 15 17 12 552 657 825 995 34 42 35 70 7 153 -28 81 -30 217 -4 302 20 67
29 316 13 348 -13 25 -67 46 -101 40 -44 -9 -74 -53 -87 -132 -6 -39 -9 -83
-6 -98 5 -25 -32 -75 -355 -473 -198 -245 -364 -449 -368 -453 -7 -7 -1030
298 -1123 334 -40 16 -62 80 -56 165 4 58 8 70 32 90 15 13 40 24 56 24 16 0
253 -68 527 -151 274 -83 513 -151 531 -152 24 -1 40 7 62 29 15 16 225 261
464 544 405 479 436 518 436 553 0 45 -24 72 -77 86 -118 31 -1196 271 -1218
271 -16 0 -40 -14 -64 -37z m381 -369 c172 -42 319 -81 326 -86 6 -6 12 -18
12 -27 0 -25 -83 -109 -115 -117 -21 -5 -120 15 -349 71 -177 42 -329 82 -338
87 -29 14 -21 35 35 93 42 44 60 55 85 55 17 0 172 -34 344 -76z m748 -867 c0
-13 6 -45 14 -71 l14 -47 -350 -427 c-193 -235 -358 -435 -368 -446 -17 -18
-33 -13 -541 149 -288 92 -541 174 -561 182 -51 20 -79 69 -85 147 -6 65 14
126 40 126 6 0 270 -79 585 -176 439 -134 580 -174 603 -169 34 8 44 19 404
468 127 157 233 286 238 286 4 1 7 -10 7 -22z"/>
</g>
</svg>
