<svg version="1.0" xmlns="http://www.w3.org/2000/svg"
 width="1250.000000pt" height="550.000000pt" viewBox="0 0 1250.000000 550.000000"
 preserveAspectRatio="xMidYMid meet">
<metadata>
Designed by Philipp Machac, Copyright 2014, All Rights reserved
</metadata>
<g transform="translate(0.000000,550.000000) scale(0.100000,-0.100000)"
fill="#000000" stroke="none">
<path d="M31 5495 c2 -2 1238 -1240 2747 -2750 l2744 -2745 3474 2 3475 3
-2746 2748 -2747 2747 -3475 0 c-1912 0 -3474 -2 -3472 -5z m6689 -901 c342
-80 556 -431 470 -770 -32 -126 -74 -198 -170 -294 -139 -140 -285 -197 -480
-187 -168 9 -301 68 -421 188 -118 119 -179 269 -179 444 0 116 20 198 72 299
80 154 234 275 408 320 73 19 219 19 300 0z m-573 -1732 l212 -467 -30 -215
c-16 -118 -32 -246 -35 -285 l-5 -70 123 -145 124 -145 44 0 45 0 112 150 c84
112 113 158 113 180 0 17 -16 136 -35 265 -19 129 -35 249 -35 266 0 20 77
194 213 480 l213 449 83 3 c109 4 174 -11 272 -59 105 -53 191 -139 247 -246
73 -141 72 -121 72 -929 0 -685 -1 -725 -20 -798 -25 -100 -71 -186 -138 -258
-55 -59 -169 -141 -184 -132 -4 3 -8 374 -8 825 l0 819 -65 0 -65 0 0 -845 0
-844 -32 -6 c-18 -3 -384 -4 -813 -3 l-780 3 -3 848 -2 847 -70 0 -70 0 0
-825 c0 -454 -3 -825 -7 -825 -5 0 -33 14 -63 32 -85 48 -171 143 -219 240
-73 147 -72 139 -69 957 l3 726 27 73 c38 104 83 175 158 245 116 109 230 155
385 156 l90 0 212 -467z m500 407 c34 -13 80 -55 99 -91 18 -35 18 -131 -1
-167 -14 -28 -63 -75 -85 -83 -12 -4 -5 -58 80 -638 22 -151 45 -308 51 -348
l10 -72 -106 -145 c-59 -80 -110 -145 -115 -145 -5 0 -61 63 -125 140 l-117
140 7 53 c6 45 22 161 65 477 6 41 21 154 35 250 42 305 43 279 -4 324 -122
116 -42 316 126 316 28 0 64 -5 80 -11z"/>
</g>
</svg>
