<svg version="1.0" xmlns="http://www.w3.org/2000/svg"
 width="1250.000000pt" height="550.000000pt" viewBox="0 0 1250.000000 550.000000"
 preserveAspectRatio="xMidYMid meet">
<metadata>
Designed by Philipp Machac, Copyright 2014, All Rights reserved
</metadata>
<g transform="translate(0.000000,550.000000) scale(0.100000,-0.100000)"
fill="#000000" stroke="none">
<path d="M2772 2751 l-2743 -2746 3475 -3 3474 -2 2744 2745 c1509 1510 2745
2748 2747 2750 2 3 -1561 5 -3475 4 l-3479 -1 -2743 -2747z m5498 519 l0
-1000 -270 0 -270 0 0 -275 0 -275 -275 0 -275 0 0 -275 0 -275 -1615 0 -1615
0 0 1000 0 1000 275 0 275 0 0 275 0 275 270 0 270 0 0 275 0 275 1615 0 1615
0 0 -1000z"/>
<path d="M5290 3870 l0 -150 34 0 33 0 18 111 18 110 31 -3 c28 -3 32 -8 52
-73 21 -69 22 -69 33 -42 6 16 16 48 22 73 11 41 14 44 44 44 l32 0 12 -87
c17 -122 20 -133 42 -133 20 0 26 15 9 25 -5 3 -10 23 -10 44 0 55 38 91 95
91 57 0 95 -36 95 -91 0 -21 -4 -41 -10 -44 -20 -12 -9 -25 20 -25 l30 0 0
130 c0 174 18 172 23 -2 l3 -133 2 133 c1 80 6 132 12 132 6 0 10 -50 10 -130
l0 -130 55 0 55 0 0 110 0 110 63 0 c40 0 70 -5 85 -16 49 -34 66 -112 37
-168 -19 -36 -19 -36 10 -36 25 0 25 1 25 80 l0 80 30 0 30 0 0 -80 0 -80 50
0 50 0 0 130 c0 174 18 172 23 -2 l3 -133 2 133 c1 80 6 132 12 132 6 0 10
-50 10 -130 l0 -130 24 0 c22 0 24 6 41 111 l18 110 31 -3 c28 -3 32 -8 52
-73 21 -69 22 -69 33 -42 6 16 16 48 22 73 11 41 14 44 44 44 l32 0 12 -87
c15 -110 21 -133 32 -133 5 0 9 36 9 80 l0 80 30 0 30 0 0 -80 0 -80 35 0 35
0 0 130 c0 174 18 172 23 -2 l3 -133 2 133 c1 80 6 132 12 132 6 0 10 -50 10
-130 l0 -130 30 0 30 0 0 110 0 110 63 0 c40 0 70 -5 85 -16 49 -34 66 -112
37 -168 -20 -37 -20 -36 20 -36 34 0 46 12 25 25 -5 3 -10 23 -10 44 0 55 38
91 95 91 57 0 95 -36 95 -91 0 -21 -4 -41 -10 -44 -20 -12 -9 -25 20 -25 l30
0 0 130 c0 174 18 172 23 -2 l3 -133 2 133 c1 80 6 132 12 132 6 0 10 -50 10
-130 l0 -130 45 0 45 0 0 110 0 110 65 0 c58 0 65 -2 65 -20 0 -16 -7 -20 -35
-20 -31 0 -35 -3 -35 -25 0 -22 4 -25 35 -25 28 0 35 -4 35 -20 0 -16 -7 -20
-36 -20 l-37 0 6 -67 c4 -38 7 -80 7 -95 l0 -28 135 0 c181 0 179 -18 -2 -23
l-138 -3 138 -2 c83 -1 137 -6 137 -12 0 -6 -52 -10 -135 -10 l-135 0 0 -170
0 -170 135 0 c83 0 135 -4 135 -10 0 -6 -52 -10 -135 -10 l-135 0 0 -180 0
-180 135 0 c83 0 135 -4 135 -10 0 -6 -52 -10 -135 -10 l-135 0 0 -155 0 -155
145 0 145 0 0 750 0 750 -1365 0 -1365 0 0 -150z"/>
<path d="M4750 3320 l0 -150 34 0 33 0 18 111 18 110 31 -3 c28 -3 32 -8 52
-73 21 -69 22 -69 33 -42 6 16 16 48 22 73 11 41 14 44 44 44 l32 0 12 -87
c17 -122 20 -133 42 -133 20 0 26 15 9 25 -5 3 -10 23 -10 44 0 55 38 91 95
91 57 0 95 -36 95 -91 0 -21 -4 -41 -10 -44 -20 -12 -9 -25 20 -25 l30 0 0
130 c0 174 18 172 23 -2 l3 -133 2 133 c1 80 6 132 12 132 6 0 10 -50 10 -130
l0 -130 55 0 55 0 0 110 0 110 63 0 c40 0 70 -5 85 -16 49 -34 66 -112 37
-168 -19 -36 -19 -36 10 -36 25 0 25 1 25 80 l0 80 30 0 30 0 0 -80 0 -80 50
0 50 0 0 130 c0 174 18 172 23 -2 l3 -133 2 133 c1 80 6 132 12 132 6 0 10
-50 10 -130 l0 -130 24 0 c22 0 24 6 41 111 l18 110 31 -3 c28 -3 32 -8 52
-73 21 -69 22 -69 33 -42 6 16 16 48 22 73 11 41 14 44 44 44 l32 0 12 -87
c15 -110 21 -133 32 -133 5 0 9 36 9 80 l0 80 30 0 30 0 0 -80 0 -80 35 0 35
0 0 130 c0 174 18 172 23 -2 l3 -133 2 133 c1 80 6 132 12 132 6 0 10 -50 10
-130 l0 -130 30 0 30 0 0 110 0 110 63 0 c40 0 70 -5 85 -16 49 -34 66 -112
37 -168 -20 -37 -20 -36 20 -36 34 0 46 12 25 25 -5 3 -10 23 -10 44 0 55 38
91 95 91 57 0 95 -36 95 -91 0 -21 -4 -41 -10 -44 -20 -12 -9 -25 20 -25 l30
0 0 130 c0 174 18 172 23 -2 l3 -133 2 133 c1 80 6 132 12 132 6 0 10 -50 10
-130 l0 -130 45 0 45 0 0 110 0 110 65 0 c58 0 65 -2 65 -20 0 -16 -7 -20 -35
-20 -31 0 -35 -3 -35 -25 0 -22 4 -25 35 -25 28 0 35 -4 35 -20 0 -16 -7 -20
-35 -20 l-35 0 0 -95 0 -95 140 0 c188 0 186 -18 -2 -23 l-143 -3 143 -2 c86
-1 142 -6 142 -12 0 -6 -53 -10 -140 -10 l-140 0 0 -170 0 -170 140 0 c87 0
140 -4 140 -10 0 -6 -53 -10 -140 -10 l-140 0 0 -180 0 -180 140 0 c87 0 140
-4 140 -10 0 -6 -53 -10 -140 -10 l-140 0 0 -155 0 -155 150 0 150 0 0 750 0
750 -1365 0 -1365 0 0 -150z"/>
<path d="M4200 2170 l0 -750 1365 0 1365 0 0 750 0 750 -1365 0 -1365 0 0
-750z m622 528 l3 -183 2 183 c2 110 7 182 13 182 6 0 10 -69 10 -180 l0 -180
245 0 245 0 0 180 c0 113 4 180 10 180 6 0 11 -69 12 -182 l3 -183 2 183 c2
110 7 182 13 182 6 0 10 -69 10 -180 l0 -180 240 0 240 0 0 180 c0 113 4 180
10 180 6 0 11 -69 12 -182 l3 -183 2 183 c2 110 7 182 13 182 6 0 10 -69 10
-180 l0 -180 255 0 255 0 0 180 c0 113 4 180 10 180 6 0 11 -69 12 -182 l3
-183 2 183 c2 110 7 182 13 182 6 0 10 -69 10 -180 l0 -180 215 0 c137 0 215
-4 215 -10 0 -6 -81 -11 -217 -12 l-218 -3 218 -2 c133 -2 217 -7 217 -13 0
-6 -81 -10 -215 -10 l-215 0 0 -170 0 -170 215 0 c137 0 215 -4 215 -10 0 -6
-78 -10 -215 -10 l-215 0 0 -180 0 -180 215 0 c137 0 215 -4 215 -10 0 -6 -78
-10 -215 -10 l-215 0 0 -140 c0 -87 -4 -140 -10 -140 -6 0 -11 56 -12 143 l-2
142 -3 -142 c-5 -189 -23 -191 -23 -3 l0 140 -255 0 -255 0 0 -140 c0 -87 -4
-140 -10 -140 -6 0 -11 56 -12 143 l-2 142 -3 -142 c-5 -189 -23 -191 -23 -3
l0 140 -240 0 -240 0 0 -140 c0 -87 -4 -140 -10 -140 -6 0 -11 56 -12 143 l-2
142 -3 -142 c-5 -189 -23 -191 -23 -3 l0 140 -245 0 -245 0 0 -140 c0 -87 -4
-140 -10 -140 -6 0 -11 56 -12 143 l-2 142 -3 -142 c-5 -189 -23 -191 -23 -3
l0 140 -290 0 c-187 0 -290 4 -290 10 0 6 103 10 290 10 l290 0 0 180 0 180
-290 0 c-187 0 -290 4 -290 10 0 6 103 10 290 10 l290 0 0 170 0 170 -290 0
c-187 0 -290 4 -290 10 0 6 106 11 293 12 l292 3 -292 2 c-184 2 -293 7 -293
13 0 6 106 10 290 10 l290 0 0 180 c0 113 4 180 10 180 6 0 11 -69 12 -182z
m-436 67 c21 -69 22 -69 33 -42 6 16 16 48 22 73 11 41 14 44 44 44 l32 0 12
-82 c6 -46 14 -100 17 -120 6 -36 5 -38 -20 -38 -19 0 -27 6 -30 23 -3 12 -9
40 -13 62 l-9 39 -18 -62 c-18 -57 -22 -62 -47 -62 -26 0 -30 5 -47 62 -20 66
-24 64 -37 -19 -6 -39 -10 -43 -34 -43 l-28 0 20 121 20 120 31 -3 c28 -3 32
-8 52 -73z m722 59 c49 -34 65 -108 37 -169 -20 -41 -51 -55 -125 -55 l-60 0
0 120 0 120 63 0 c40 0 70 -5 85 -16z m448 -59 c21 -69 22 -69 33 -42 6 16 16
48 22 73 11 41 14 44 44 44 l32 0 12 -82 c6 -46 14 -100 17 -120 6 -36 5 -38
-20 -38 -19 0 -27 6 -30 23 -3 12 -9 40 -13 62 l-9 39 -18 -62 c-18 -57 -22
-62 -47 -62 -26 0 -30 5 -47 62 -20 66 -24 64 -37 -19 -6 -39 -10 -43 -34 -43
l-28 0 20 121 20 120 31 -3 c28 -3 32 -8 52 -73z m572 59 c49 -34 65 -108 37
-169 -20 -41 -51 -55 -125 -55 l-60 0 0 120 0 120 63 0 c40 0 70 -5 85 -16z
m572 -4 c0 -16 -7 -20 -35 -20 -31 0 -35 -3 -35 -25 0 -22 4 -25 35 -25 28 0
35 -4 35 -20 0 -16 -7 -20 -35 -20 l-35 0 0 -55 c0 -54 0 -55 -30 -55 l-30 0
0 120 0 120 65 0 c58 0 65 -2 65 -20z m-1966 -66 c59 -60 17 -154 -69 -154
-32 0 -48 6 -69 26 -59 60 -17 154 69 154 32 0 48 -6 69 -26z m1630 0 c59 -60
17 -154 -69 -154 -32 0 -48 6 -69 26 -59 60 -17 154 69 154 32 0 48 -6 69 -26z"/>
<path d="M4850 2300 l0 -170 245 0 245 0 0 170 0 170 -245 0 -245 0 0 -170z"/>
<path d="M5390 2300 l0 -170 240 0 240 0 0 170 0 170 -240 0 -240 0 0 -170z"/>
<path d="M5920 2300 l0 -170 255 0 255 0 0 170 0 170 -255 0 -255 0 0 -170z"/>
<path d="M4850 1930 l0 -180 245 0 245 0 0 180 0 180 -245 0 -245 0 0 -180z"/>
<path d="M5390 1930 l0 -180 240 0 240 0 0 180 0 180 -240 0 -240 0 0 -180z"/>
<path d="M5920 1930 l0 -180 255 0 255 0 0 180 0 180 -255 0 -255 0 0 -180z"/>
</g>
</svg>
