<svg version="1.0" xmlns="http://www.w3.org/2000/svg"
 width="1250.000000pt" height="550.000000pt" viewBox="0 0 1250.000000 550.000000"
 preserveAspectRatio="xMidYMid meet">
<g transform="translate(0.000000,550.000000) scale(0.100000,-0.100000)"
fill="#000000" stroke="none">
<path d="M31 5495 c2 -2 1238 -1240 2747 -2750 l2744 -2745 3474 2 3475 3
-2746 2748 -2747 2747 -3475 0 c-1912 0 -3474 -2 -3472 -5z m5437 -1306 c24
-52 62 -137 86 -189 l42 -95 457 -3 457 -2 0 -285 0 -284 -27 15 c-61 31 -137
15 -180 -38 l-33 -40 -191 2 c-105 0 -189 -3 -187 -7 1 -5 12 -30 22 -56 l19
-48 42 6 c60 10 118 -9 154 -50 64 -74 60 -161 -11 -227 -39 -36 -40 -39 -28
-68 12 -29 14 -30 84 -30 87 0 147 -25 176 -72 17 -28 20 -50 20 -145 l0 -113
-56 0 c-53 0 -55 -1 -48 -22 4 -13 12 -26 18 -30 6 -4 441 -8 966 -8 l955 0 0
-135 0 -135 -892 0 c-541 0 -894 -3 -897 -9 -4 -5 10 -41 29 -79 19 -39 35
-73 35 -75 0 -5 89 -201 172 -380 23 -48 39 -89 37 -91 -2 -2 -16 -7 -31 -11
-24 -6 -28 -2 -58 61 -39 82 -140 300 -225 489 -35 77 -73 158 -84 180 l-20
40 -1 -210 c0 -267 -17 -337 -108 -437 -35 -39 -116 -98 -134 -98 -4 0 -8 261
-8 581 l0 580 -47 -3 -48 -3 -3 -592 c-2 -518 -4 -593 -17 -593 -20 0 -1067 0
-1100 0 l-25 0 0 595 0 595 -45 0 -45 0 0 -580 c0 -337 -4 -580 -9 -580 -5 0
-35 20 -68 44 -64 49 -112 113 -146 197 -22 53 -22 64 -25 549 -2 325 1 517 8
560 15 93 59 177 125 239 78 74 149 104 255 109 l85 4 152 -322 152 -322 -24
-170 c-14 -93 -25 -185 -25 -204 0 -26 17 -57 77 -139 104 -142 108 -142 221
-4 46 55 86 107 88 114 3 7 -6 98 -21 202 l-26 188 62 135 c34 74 99 218 146
320 46 102 91 190 100 197 13 10 9 24 -32 112 l-47 100 -55 -60 c-39 -42 -77
-70 -131 -96 -75 -37 -78 -38 -191 -38 -110 0 -120 2 -184 32 -184 87 -287
276 -257 471 22 142 114 268 240 330 73 36 166 56 223 49 20 -3 37 -2 37 1 0
3 -25 59 -56 125 -31 65 -54 120 -52 121 1 2 17 10 33 19 l30 16 25 -53 c14
-29 44 -95 68 -147z m2547 -589 c0 -165 -1 -300 -2 -300 -1 0 -14 11 -29 25
-32 29 -78 40 -137 30 -33 -5 -49 -15 -74 -46 l-32 -40 -216 0 -216 0 -32 40
c-25 31 -41 41 -74 46 -55 9 -104 0 -131 -25 -12 -11 -24 -20 -27 -20 -3 0 -5
133 -5 295 l0 295 488 0 487 0 0 -300z m-1552 -284 c35 -14 62 -48 72 -89 15
-57 -56 -127 -128 -127 -31 0 -46 7 -72 33 -19 19 -37 45 -40 59 -9 37 19 94
57 118 39 23 66 25 111 6z m752 0 c25 -11 41 -28 57 -60 21 -44 21 -47 5 -81
-36 -77 -130 -98 -191 -44 -63 55 -55 136 17 179 38 24 66 25 112 6z m762 -30
c69 -75 17 -186 -87 -186 -99 0 -154 108 -93 180 34 41 58 51 108 45 30 -3 48
-13 72 -39z m-2562 -120 c43 -18 75 -69 75 -119 0 -45 -13 -74 -45 -102 l-23
-20 51 -372 51 -371 -57 -69 c-30 -37 -69 -83 -84 -102 l-29 -34 -77 105 -76
105 49 344 c28 189 52 354 54 367 2 16 -4 28 -21 39 -80 52 -67 190 21 229 40
17 69 17 111 0z m1455 -19 c135 -71 107 -263 -43 -297 -138 -31 -250 108 -185
229 45 84 143 113 228 68z m791 0 c103 -55 118 -185 30 -260 -76 -64 -185 -53
-245 26 -48 63 -43 147 12 203 57 57 131 69 203 31z m-1078 -127 c-7 -51 17
-117 57 -155 17 -16 30 -31 30 -34 0 -4 -374 -5 -539 -1 -3 0 7 12 21 28 41
43 59 89 59 148 l0 54 189 0 188 0 -5 -40z m771 34 c10 -4 16 -19 16 -43 1
-44 22 -106 45 -131 9 -10 15 -26 13 -35 -3 -14 -31 -16 -261 -18 -141 -1
-257 1 -257 4 0 3 13 18 30 34 40 38 64 104 57 155 l-5 40 173 0 c95 0 180 -3
189 -6z m745 -8 c46 -24 52 -39 53 -131 l1 -86 -226 -2 c-125 -1 -227 1 -227
4 0 3 13 18 30 34 38 37 63 103 58 154 l-4 41 144 0 c105 0 150 -4 171 -14z
m-1023 -275 c74 -34 84 -56 84 -192 l0 -119 -376 2 -375 3 -1 114 c-1 109 1
115 26 148 47 58 64 61 346 62 228 0 259 -1 296 -18z m790 0 c74 -34 84 -56
84 -192 l0 -119 -373 0 c-206 0 -376 2 -378 4 -2 2 -2 58 1 124 5 111 7 123
30 148 47 50 65 53 340 53 227 1 259 -1 296 -18z"/>
</g>
</svg>
