<?xml version="1.0" standalone="no"?>
<!DOCTYPE svg PUBLIC "-//W3C//DTD SVG 20010904//EN"
 "http://www.w3.org/TR/2001/REC-SVG-20010904/DTD/svg10.dtd">
<svg version="1.0" xmlns="http://www.w3.org/2000/svg"
 width="1250.000000pt" height="550.000000pt" viewBox="0 0 1250.000000 550.000000"
 preserveAspectRatio="xMidYMid meet">
<metadata>
Created by potrace 1.11, written by Peter Selinger 2001-2013
</metadata>
<g transform="translate(0.000000,550.000000) scale(0.100000,-0.100000)"
fill="#000000" stroke="none">
<path d="M2772 2751 l-2743 -2746 3475 -3 3474 -2 2744 2745 c1509 1510 2745
2748 2747 2750 2 3 -1561 5 -3475 4 l-3479 -1 -2743 -2747z m2953 1325 c110
-35 197 -88 280 -171 84 -83 134 -161 171 -270 25 -73 28 -93 28 -220 0 -127
-3 -147 -28 -220 -37 -109 -87 -187 -171 -270 -83 -82 -169 -135 -280 -172
-72 -24 -95 -27 -225 -27 -130 0 -153 3 -225 27 -111 37 -197 90 -280 172 -84
83 -134 162 -171 270 -25 72 -28 94 -28 215 0 103 4 150 18 198 10 34 22 65
27 68 4 2 102 -87 216 -199 114 -112 218 -209 230 -216 63 -32 119 -3 255 136
108 110 126 140 113 190 -4 17 -87 106 -226 241 -120 118 -219 218 -219 222 0
8 125 46 175 54 17 2 82 3 145 1 89 -3 133 -9 195 -29z m1706 -202 c157 -71
249 -263 205 -432 -25 -101 -50 -137 -199 -291 -78 -81 -320 -332 -537 -559
-217 -227 -400 -412 -405 -412 -6 0 -133 126 -282 279 l-272 279 447 439 c710
696 707 695 819 723 61 15 157 4 224 -26z m-1400 -1747 l-183 -182 -10 -90
c-7 -59 -16 -96 -27 -106 -9 -9 -146 -101 -305 -203 l-289 -187 -76 73 c-42
39 -80 75 -84 79 -7 5 346 530 390 581 9 10 45 21 101 29 l87 12 190 188 190
189 100 -100 100 -100 -184 -183z m1219 87 c279 -256 292 -269 328 -342 34
-70 37 -83 37 -161 -1 -73 -5 -96 -29 -148 -72 -157 -251 -248 -417 -214 -101
21 -165 69 -331 250 -84 91 -202 219 -261 283 l-108 116 237 241 c130 133 241
241 246 241 5 0 139 -120 298 -266z"/>
<path d="M6985 3508 c-515 -519 -655 -669 -655 -698 0 -33 31 -60 59 -53 21 5
841 844 855 873 12 26 -17 70 -46 70 -16 0 -81 -59 -213 -192z"/>
<path d="M6959 3068 c-226 -233 -416 -433 -422 -445 -13 -29 14 -73 46 -73 30
0 860 851 865 887 5 32 -14 53 -49 53 -24 0 -90 -63 -440 -422z"/>
<path d="M7165 1841 c-56 -34 -70 -58 -70 -121 0 -63 20 -96 77 -126 57 -29
128 -13 178 41 21 22 25 37 25 85 0 48 -4 63 -25 85 -53 57 -128 71 -185 36z"/>
</g>
</svg>
