<?xml version="1.0" standalone="no"?>
<!DOCTYPE svg PUBLIC "-//W3C//DTD SVG 20010904//EN"
 "http://www.w3.org/TR/2001/REC-SVG-20010904/DTD/svg10.dtd">
<svg version="1.0" xmlns="http://www.w3.org/2000/svg"
 width="1250.000000pt" height="550.000000pt" viewBox="0 0 1250.000000 550.000000"
 preserveAspectRatio="xMidYMid meet">
<metadata>
Created by potrace 1.11, written by Peter Selinger 2001-2013
</metadata>
<g transform="translate(0.000000,550.000000) scale(0.100000,-0.100000)"
fill="#000000" stroke="none">
<path d="M2772 2751 l-2743 -2746 3475 -3 3474 -2 2744 2745 c1509 1510 2745
2748 2747 2750 2 3 -1561 5 -3475 4 l-3479 -1 -2743 -2747z m4929 1170 l29
-30 -2 -808 -3 -808 -1397 -3 -1398 -2 0 819 0 820 26 20 27 21 1344 0 1345 0
29 -29z m26 -1831 c2 -126 1 -130 -23 -160 l-26 -30 -1351 0 -1351 0 -23 22
c-22 20 -23 28 -23 160 l0 138 1398 0 1397 0 2 -130z m-1117 -339 c0 -111 10
-131 85 -182 29 -20 35 -28 30 -49 -12 -50 -14 -50 -400 -50 -310 0 -364 2
-383 16 -25 17 -30 59 -8 71 8 4 35 27 60 51 l46 43 0 100 0 99 285 0 285 0 0
-99z"/>
<path d="M5032 3828 c-16 -16 -17 -1409 -2 -1439 11 -19 35 -19 1295 -19 1260
0 1284 0 1295 19 15 30 14 1423 -2 1439 -17 17 -2569 17 -2586 0z"/>
<path d="M6285 2125 c-32 -31 -34 -86 -5 -115 31 -31 93 -27 119 6 29 37 26
70 -8 105 -36 36 -73 37 -106 4z"/>
</g>
</svg>
