<svg version="1.0" xmlns="http://www.w3.org/2000/svg"
 width="1250.000000pt" height="550.000000pt" viewBox="0 0 1250.000000 550.000000"
 preserveAspectRatio="xMidYMid meet">
<g transform="translate(0.000000,550.000000) scale(0.100000,-0.100000)"
fill="#000000" stroke="none">
<path d="M31 5495 c2 -2 1238 -1240 2747 -2750 l2744 -2745 3474 2 3475 3
-2746 2748 -2747 2747 -3475 0 c-1912 0 -3474 -2 -3472 -5z m7568 -1881 l31
-26 -2 -857 -3 -856 -26 -40 c-45 -68 -101 -112 -161 -124 -38 -8 -392 -11
-1218 -9 -1065 3 -1168 4 -1200 20 -46 22 -103 82 -129 137 -21 44 -21 54 -21
727 0 726 0 727 47 746 10 3 82 7 161 7 l142 1 0 124 c0 120 1 124 26 150 l27
26 1148 0 1147 0 31 -26z"/>
<path d="M5416 3451 c-3 -5 -6 -358 -6 -785 l-1 -776 983 0 983 -1 33 26 c29
24 32 31 32 80 l0 55 -437 2 -438 3 -3 338 -2 337 440 0 440 0 -2 363 -3 362
-1007 3 c-572 1 -1009 -2 -1012 -7z m1776 -131 c47 -13 98 -71 98 -110 0 -28
-2 -30 -39 -30 -33 0 -43 5 -61 30 -18 25 -28 30 -64 30 -28 0 -48 -6 -57 -16
-23 -28 2 -47 96 -69 93 -23 128 -48 141 -100 13 -53 -25 -117 -82 -141 -43
-18 -135 -18 -177 0 -45 18 -87 71 -87 107 0 28 2 29 45 29 39 0 47 -3 55 -24
17 -45 84 -61 128 -30 47 33 27 52 -86 79 -86 21 -127 51 -136 99 -21 108 94
182 226 146z m-1435 -115 c35 -60 68 -111 73 -113 6 -2 10 40 10 112 l0 116
45 0 45 0 0 -205 0 -205 -50 0 c-41 0 -51 4 -61 23 -7 12 -37 65 -68 117 l-56
95 -5 -115 -5 -115 -47 -3 -48 -3 0 199 c0 109 3 202 7 206 4 4 27 6 52 4 l44
-3 64 -110z m578 70 l0 -40 -107 -3 -108 -3 0 -29 0 -29 98 -3 97 -3 3 -42 3
-43 -100 0 -101 0 0 -40 0 -39 113 -3 112 -3 3 -43 3 -43 -163 3 -163 3 -3
190 c-1 104 0 195 3 202 3 11 39 13 157 11 l153 -3 0 -40z m160 33 c2 -7 14
-57 26 -110 12 -54 25 -98 28 -98 4 0 13 30 20 68 7 37 18 86 23 110 l11 43
50 -3 51 -3 16 -80 c23 -111 29 -135 38 -135 4 0 15 38 25 85 27 133 29 135
82 135 36 0 45 -3 45 -17 0 -10 -25 -101 -54 -203 l-53 -185 -49 0 -48 0 -17
75 c-9 41 -20 92 -24 114 -9 56 -22 35 -45 -78 -11 -54 -22 -102 -26 -107 -3
-5 -25 -9 -49 -9 -33 0 -45 4 -49 18 -75 263 -106 373 -106 381 0 16 100 14
105 -1z m-95 -653 l0 -75 -415 0 -415 0 0 75 0 75 415 0 415 0 0 -75z m0 -270
l0 -75 -410 0 -410 0 0 75 0 75 410 0 410 0 0 -75z m0 -250 l0 -75 -410 0
-410 0 0 75 0 75 410 0 410 0 0 -75z"/>
<path d="M5060 2548 c0 -573 1 -604 19 -627 10 -14 25 -26 32 -27 8 -1 22 -5
32 -9 10 -4 17 -3 17 5 0 6 4 9 9 6 4 -3 17 4 27 15 15 17 20 40 22 110 l4 89
-51 0 -51 0 0 70 0 70 50 0 50 0 0 54 c0 59 -7 66 -66 66 l-34 0 0 75 0 75 50
0 50 0 0 55 0 55 -50 0 -50 0 0 75 0 75 50 0 50 0 0 60 0 60 -50 0 -50 0 0 75
0 75 50 0 50 0 0 50 0 50 -80 0 -80 0 0 -602z"/>
</g>
</svg>
