<svg version="1.0" xmlns="http://www.w3.org/2000/svg"
 width="1250.000000pt" height="550.000000pt" viewBox="0 0 1250.000000 550.000000"
 preserveAspectRatio="xMidYMid meet">
<metadata>
Designed by Philipp Machac, Copyright 2014, All Rights reserved
</metadata>
<g transform="translate(0.000000,550.000000) scale(0.100000,-0.100000)"
fill="#000000" stroke="none">
<path d="M31 5495 c2 -2 1238 -1240 2747 -2750 l2744 -2745 3474 2 3475 3
-2746 2748 -2747 2747 -3475 0 c-1912 0 -3474 -2 -3472 -5z m7648 -1164 c36
-26 89 -64 118 -83 l52 -34 -19 -32 c-23 -37 -36 -39 -70 -11 -14 11 -65 47
-115 81 -49 33 -92 62 -93 64 -9 6 34 64 46 64 8 0 44 -22 81 -49z m-10 -125
c61 -44 110 -84 108 -90 -3 -6 -212 -308 -467 -671 -254 -363 -465 -666 -469
-673 -6 -10 -27 0 -82 40 -42 29 -99 69 -127 88 -29 19 -50 40 -48 47 6 13
911 1310 934 1335 17 20 7 25 151 -76z m-749 -691 c0 -6 -69 -105 -112 -164
-15 -20 -33 -46 -39 -58 l-12 -23 -974 0 -973 0 0 -750 0 -750 1365 0 1365 0
0 750 0 750 -152 0 c-151 0 -151 0 -133 20 10 11 23 29 29 39 6 11 38 58 70
105 l59 86 189 0 188 0 0 -1000 0 -1000 -1615 0 -1615 0 0 1000 0 1000 1180 0
c649 0 1180 -2 1180 -5z m-890 -445 l0 -150 -30 0 -30 0 0 150 0 150 30 0 30
0 0 -150z m-899 122 c14 -12 20 -25 16 -36 -10 -26 -36 -30 -58 -10 -15 14
-22 15 -32 5 -9 -9 0 -23 46 -62 50 -44 57 -55 57 -87 0 -52 -32 -82 -88 -82
-35 0 -49 6 -75 31 l-31 31 28 15 c26 14 30 13 52 -8 23 -22 25 -22 42 -6 16
16 13 20 -41 70 -46 43 -57 59 -57 85 0 19 8 40 20 52 26 26 89 27 121 2z
m139 -131 c0 -71 13 -97 43 -86 17 7 27 48 27 111 0 43 1 44 31 44 l31 0 -3
-79 c-4 -67 -8 -83 -28 -105 -20 -21 -34 -26 -71 -26 -37 0 -51 5 -71 26 -20
22 -24 38 -28 105 l-3 79 36 0 36 0 0 -69z m230 57 c0 -9 3 -9 12 0 7 7 32 12
56 12 35 0 49 -6 73 -29 64 -64 21 -181 -66 -181 -20 0 -45 5 -56 10 -18 10
-19 7 -19 -40 0 -49 -1 -50 -30 -50 l-30 0 0 145 0 145 30 0 c17 0 30 -5 30
-12z m260 0 c0 -9 3 -9 12 0 7 7 32 12 56 12 35 0 49 -6 73 -29 64 -64 21
-181 -66 -181 -20 0 -45 5 -56 10 -18 10 -19 7 -19 -40 0 -49 -1 -50 -30 -50
l-30 0 0 145 0 145 30 0 c17 0 30 -5 30 -12z m591 -17 c19 -20 29 -40 29 -60
l0 -31 -80 0 c-82 0 -101 -11 -55 -32 19 -8 31 -8 50 0 18 8 33 9 52 1 l28
-11 -28 -24 c-22 -18 -40 -24 -79 -24 -44 0 -54 4 -84 34 -26 26 -34 42 -34
71 0 29 8 45 34 71 30 30 40 34 86 34 44 0 56 -4 81 -29z m165 6 c-3 -12 -6
-26 -6 -31 0 -4 -7 -6 -15 -2 -22 8 -35 -25 -35 -93 l0 -61 -30 0 -30 0 0 104
0 105 61 0 c58 -1 61 -2 55 -22z m714 11 c0 -9 3 -9 12 0 20 20 85 15 108 -8
17 -17 20 -33 20 -105 l0 -85 -30 0 -30 0 0 63 c0 75 -16 105 -47 89 -21 -11
-33 -55 -33 -119 0 -30 -3 -33 -30 -33 l-30 0 0 105 0 105 30 0 c17 0 30 -5
30 -12z m-536 -300 c58 -40 105 -77 105 -83 0 -5 -43 -44 -95 -85 -117 -92
-131 -103 -224 -179 -41 -34 -76 -57 -78 -53 -1 5 34 114 78 243 44 128 80
235 80 237 0 10 37 -12 134 -80z m-421 -45 l-203 -3 0 -110 0 -110 163 -2 162
-2 -162 -3 -163 -3 0 -90 0 -90 475 0 475 0 0 90 0 90 -187 2 -188 3 188 2
187 3 0 110 0 109 -67 4 c-38 2 73 4 245 5 l312 2 0 -490 0 -490 -1335 0
-1335 0 0 490 0 490 818 -2 c449 -2 726 -4 615 -5z m-83 -63 c0 -5 -9 -10 -20
-10 -11 0 -20 -7 -20 -15 0 -8 9 -15 20 -15 11 0 20 5 20 10 0 13 107 13 115
1 3 -5 1 -13 -5 -16 -8 -5 -7 -11 1 -21 18 -22 3 -46 -26 -42 -14 2 -24 8 -23
13 2 6 9 9 16 9 7 -1 3 8 -10 20 -28 27 -38 24 -38 -15 0 -28 -1 -29 -50 -29
l-50 0 0 60 0 60 35 0 c19 0 35 -4 35 -10z"/>
<path d="M4850 2660 l0 -110 290 0 290 0 0 110 0 110 -290 0 -290 0 0 -110z
m100 48 c0 -9 3 -9 12 0 7 7 29 12 50 12 35 0 38 -2 38 -27 0 -21 3 -24 12
-15 16 16 88 16 89 0 0 -10 2 -10 6 0 5 13 45 17 56 5 4 -3 2 -12 -4 -20 -9
-9 -8 -13 0 -13 6 0 11 -6 11 -13 0 -7 9 -13 20 -13 19 0 19 1 0 18 -24 22
-16 48 14 48 29 0 39 -10 25 -27 -9 -10 -8 -13 0 -13 7 0 11 -10 9 -22 -3 -22
-8 -23 -107 -25 -64 -2 -110 2 -118 9 -9 7 -13 7 -13 -1 0 -19 -78 -13 -89 7
-10 16 -10 16 -11 0 0 -10 -7 -18 -15 -18 -12 0 -15 13 -15 60 0 47 3 60 15
60 8 0 15 -5 15 -12z"/>
<path d="M5440 2660 l0 -110 310 0 310 0 0 110 0 110 -310 0 -310 0 0 -110z"/>
<path d="M7030 2660 l0 -110 235 0 235 0 0 110 0 110 -235 0 -235 0 0 -110z
m120 50 c0 -5 -9 -10 -20 -10 -11 0 -20 -7 -20 -15 0 -17 45 -21 55 -5 3 6 24
10 46 10 33 0 39 -3 40 -22 1 -17 2 -19 6 -6 8 30 81 38 91 10 3 -9 -5 -12
-24 -10 -23 2 -29 -1 -29 -17 0 -14 7 -20 22 -20 39 0 30 -20 -10 -23 -31 -3
-39 1 -46 20 l-10 23 0 -23 c-1 -21 -5 -23 -43 -20 -33 2 -45 8 -53 26 -14 31
-45 29 -45 -3 0 -16 -6 -25 -15 -25 -12 0 -15 13 -15 60 l0 60 35 0 c19 0 35
-4 35 -10z"/>
<path d="M4850 2450 l0 -90 290 0 290 0 0 90 0 90 -290 0 -290 0 0 -90z"/>
<path d="M5440 2450 l0 -90 310 0 310 0 0 90 0 90 -310 0 -310 0 0 -90z"/>
<path d="M7030 2450 l0 -90 235 0 235 0 0 90 0 90 -235 0 -235 0 0 -90z"/>
<path d="M4850 2260 l0 -90 290 0 290 0 0 90 0 90 -290 0 -290 0 0 -90z"/>
<path d="M5440 2260 l0 -90 310 0 310 0 0 90 0 90 -310 0 -310 0 0 -90z"/>
<path d="M6070 2260 l0 -90 475 0 475 0 0 90 0 90 -475 0 -475 0 0 -90z"/>
<path d="M7030 2260 l0 -90 235 0 235 0 0 90 0 90 -235 0 -235 0 0 -90z"/>
<path d="M4850 2070 l0 -90 290 0 290 0 0 90 0 90 -290 0 -290 0 0 -90z"/>
<path d="M5440 2070 l0 -90 310 0 310 0 0 90 0 90 -310 0 -310 0 0 -90z"/>
<path d="M6070 2070 l0 -90 475 0 475 0 0 90 0 90 -475 0 -475 0 0 -90z"/>
<path d="M7030 2070 l0 -90 235 0 235 0 0 90 0 90 -235 0 -235 0 0 -90z"/>
<path d="M4850 1890 l0 -80 290 0 290 0 0 80 0 80 -290 0 -290 0 0 -80z"/>
<path d="M5440 1890 l0 -80 310 0 310 0 0 80 0 80 -310 0 -310 0 0 -80z"/>
<path d="M6070 1890 l0 -80 475 0 475 0 0 80 0 80 -475 0 -475 0 0 -80z"/>
<path d="M7030 1890 l0 -80 235 0 235 0 0 80 0 80 -235 0 -235 0 0 -80z"/>
</g>
</svg>
