<svg version="1.0" xmlns="http://www.w3.org/2000/svg"
 width="1347.000000pt" height="1310.000000pt" viewBox="0 0 1347.000000 1310.000000"
 preserveAspectRatio="xMidYMid meet">
<metadata>
Designed by Philipp Machac, Copyright 2014, All Rights reserved
</metadata>
<g transform="translate(0.000000,1310.000000) scale(0.100000,-0.100000)"
fill="#000000" stroke="none">
<path d="M6165 12989 c-1447 -90 -2802 -654 -3870 -1611 -182 -163 -561 -548
-700 -711 -763 -895 -1239 -1937 -1404 -3077 -49 -333 -56 -459 -56 -995 0
-536 7 -662 56 -995 165 -1140 641 -2182 1404 -3077 139 -163 518 -548 700
-711 1076 -965 2422 -1522 3895 -1612 213 -13 807 -13 1020 0 1473 90 2819
647 3895 1612 182 163 561 548 700 711 763 895 1239 1937 1404 3077 49 333 56
459 56 995 0 536 -7 662 -56 995 -165 1140 -641 2182 -1404 3077 -139 163
-518 548 -700 711 -1076 965 -2422 1522 -3895 1612 -190 11 -853 11 -1045 -1z
m895 -299 c1955 -120 3701 -1077 4805 -2635 611 -863 972 -1838 1082 -2925 24
-246 24 -824 0 -1070 -79 -777 -275 -1468 -608 -2133 -1053 -2104 -3240 -3437
-5639 -3437 -2062 0 -3990 988 -5165 2645 -611 863 -972 1838 -1082 2925 -24
246 -24 824 0 1070 79 777 275 1468 608 2133 992 1983 2990 3285 5254 3426
192 12 557 12 745 1z"/>
<path d="M6365 10364 c-479 -67 -906 -285 -1270 -649 -370 -370 -577 -778
-652 -1285 -12 -82 -16 -236 -20 -697 l-5 -593 -123 0 c-93 0 -138 -5 -184
-19 -147 -46 -272 -172 -315 -320 -14 -49 -16 -219 -16 -1606 0 -1387 2 -1557
16 -1606 43 -147 161 -268 311 -318 l62 -21 2529 0 c2278 0 2534 2 2583 16
148 43 274 168 320 315 18 59 19 118 19 1614 0 1527 0 1554 -20 1618 -23 75
-87 167 -151 218 -111 88 -176 109 -344 109 l-125 0 0 493 c0 648 -12 804 -76
1058 -73 293 -223 587 -425 836 -85 104 -264 283 -369 366 -307 246 -625 390
-1020 462 -135 25 -571 30 -725 9z m556 -980 c261 -44 492 -165 690 -363 152
-153 255 -317 319 -509 56 -172 60 -222 60 -824 l0 -548 -1290 0 -1290 0 0
548 c0 458 3 564 16 643 46 271 160 487 363 689 202 201 422 318 686 364 111
20 330 20 446 0z m-81 -3183 c0 -5 17 -11 38 -15 75 -11 182 -75 262 -155 84
-83 127 -154 160 -263 20 -61 22 -86 18 -197 -5 -130 -10 -148 -66 -260 -32
-62 -126 -169 -187 -211 l-44 -30 -3 -387 -3 -388 -27 -56 c-29 -59 -82 -115
-139 -145 -27 -15 -55 -19 -139 -19 -96 0 -108 2 -145 27 -54 35 -98 84 -127
138 -23 44 -23 50 -28 437 l-5 392 -45 32 c-114 83 -197 202 -239 345 -64 218
25 483 211 630 61 48 193 114 227 114 11 0 23 5 26 10 8 12 255 14 255 1z"/>
</g>
</svg>
