<?xml version="1.0" standalone="no"?>
<!DOCTYPE svg PUBLIC "-//W3C//DTD SVG 20010904//EN"
 "http://www.w3.org/TR/2001/REC-SVG-20010904/DTD/svg10.dtd">
<svg version="1.0" xmlns="http://www.w3.org/2000/svg"
 width="1000.000000pt" height="1000.000000pt" viewBox="0 0 1000.000000 1000.000000"
 preserveAspectRatio="xMidYMid meet">
<metadata>
Created by potrace 1.11, written by Peter Selinger 2001-2013
</metadata>
<g transform="translate(0.000000,1000.000000) scale(0.100000,-0.100000)"
fill="#000000" stroke="none" fill-opacity="0.8">
<path d="M3300 9863 c-36 -13 -60 -47 -60 -82 0 -30 34 -86 203 -341 112 -168
211 -317 221 -332 l18 -27 -114 -54 c-683 -330 -1117 -963 -1211 -1765 -7 -62
-11 -115 -8 -117 2 -3 1201 -5 2663 -5 l2658 0 0 51 c0 126 -52 386 -115 574
-107 320 -266 583 -494 817 -189 195 -373 327 -618 445 l-112 54 219 329 c121
181 222 340 225 353 15 60 -58 121 -118 98 -17 -7 -91 -109 -252 -348 -125
-186 -233 -344 -240 -352 -11 -11 -29 -8 -116 17 -317 93 -646 136 -1044 136
-250 0 -408 -11 -632 -45 -133 -20 -370 -74 -452 -103 -24 -9 -50 -16 -57 -16
-8 0 -117 154 -242 343 -126 188 -235 347 -243 354 -18 15 -60 23 -79 16z
m696 -1406 c174 -88 217 -313 89 -465 -14 -17 -53 -45 -87 -61 -104 -52 -223
-42 -314 28 -98 75 -139 212 -99 332 24 72 109 158 180 182 71 24 165 18 231
-16z m2280 0 c218 -110 217 -420 -1 -528 -58 -28 -71 -31 -142 -27 -129 6
-207 59 -261 176 -21 47 -24 65 -20 131 3 50 12 90 26 117 29 56 110 127 169
147 69 24 163 17 229 -16z"/>
<path d="M2352 4658 l3 -2113 31 -86 c73 -203 224 -355 426 -426 69 -25 87
-27 323 -32 l250 -6 5 -790 5 -790 29 -59 c32 -66 111 -149 178 -189 25 -14
81 -39 124 -54 69 -24 94 -27 199 -27 87 0 136 5 179 18 152 46 271 139 329
255 l32 66 3 787 2 788 538 -2 537 -3 5 -790 5 -790 31 -60 c60 -114 181 -207
329 -251 83 -25 267 -25 350 0 150 45 277 141 331 252 l29 59 5 790 5 790 250
6 c276 6 301 11 430 77 49 25 96 62 155 122 98 97 149 184 180 306 20 76 20
120 20 2171 l0 2093 -2660 0 -2660 0 2 -2112z"/>
<path d="M1236 6714 c-155 -38 -308 -157 -357 -279 l-24 -60 0 -1395 0 -1395
24 -60 c18 -45 42 -78 95 -131 114 -114 243 -164 426 -164 113 0 188 17 288
66 96 47 173 122 215 211 l32 68 0 1405 0 1405 -32 68 c-59 123 -189 221 -348
262 -74 19 -239 18 -319 -1z"/>
<path d="M8476 6714 c-155 -38 -308 -157 -357 -279 l-24 -60 0 -1395 0 -1395
24 -60 c18 -45 42 -78 95 -131 114 -114 243 -164 426 -164 113 0 188 17 288
66 94 46 174 124 216 213 l31 66 0 1405 0 1405 -31 66 c-58 123 -178 215 -334
258 -89 25 -243 27 -334 5z"/>
</g>
</svg>
