<svg version="1.0" xmlns="http://www.w3.org/2000/svg"
 width="426.000000pt" height="373.000000pt" viewBox="0 0 426.000000 373.000000"
 preserveAspectRatio="xMidYMid meet">
<g transform="translate(0.000000,373.000000) scale(0.100000,-0.100000)"
fill="#000000" stroke="none" fill-opacity="0.8">
<path d="M143 3655 c-67 -29 -63 50 -63 -1255 l0 -1180 2050 0 2050 0 0 1175
c0 1298 4 1214 -63 1255 -31 20 -65 20 -1987 20 -1643 -1 -1960 -3 -1987 -15z
m3868 -155 c19 -10 19 -33 19 -1060 0 -940 -2 -1050 -16 -1064 -14 -14 -199
-16 -1889 -16 l-1874 0 -15 22 c-14 20 -16 136 -16 1053 0 917 2 1033 16 1053
l15 22 1870 0 c1270 0 1877 -3 1890 -10z"/>
<path d="M80 950 c0 -215 6 -241 65 -266 29 -12 321 -14 1980 -14 2139 0 1994
-4 2034 61 18 30 20 49 18 221 l-2 188 -2047 0 -2048 0 0 -190z m2146 46 c29
-29 34 -41 34 -81 0 -40 -5 -52 -34 -81 -29 -29 -41 -34 -81 -34 -40 0 -52 5
-81 34 -29 29 -34 41 -34 81 0 40 5 52 34 81 29 29 41 34 81 34 40 0 52 -5 81
-34z"/>
<path d="M2089 971 c-17 -18 -29 -40 -29 -56 0 -35 50 -85 85 -85 35 0 85 50
85 85 0 35 -50 85 -85 85 -16 0 -38 -12 -56 -29z"/>
<path d="M1710 453 l0 -148 -86 -82 c-77 -74 -85 -85 -82 -115 5 -58 -1 -58
589 -58 497 0 538 1 558 17 11 10 22 32 23 48 3 26 -6 38 -62 86 -107 91 -110
98 -110 260 l0 139 -415 0 -415 0 0 -147z"/>
</g>
</svg>
