<svg version="1.0" xmlns="http://www.w3.org/2000/svg"
 width="1000.000000pt" height="1000.000000pt" viewBox="0 0 1000.000000 1000.000000"
 preserveAspectRatio="xMidYMid meet">
<g transform="translate(0.000000,1000.000000) scale(0.100000,-0.100000)"
fill="#000000" stroke="none" fill-opacity="0.8">
<path d="M6773 9925 c-398 -73 -857 -313 -1145 -598 -334 -330 -560 -746 -633
-1162 -20 -110 -30 -346 -20 -439 l7 -69 176 6 c192 6 295 24 452 76 360 121
724 422 987 816 197 294 315 600 358 928 15 116 21 410 9 441 -8 20 -85 20
-191 1z"/>
<path d="M6554 7555 c-232 -35 -441 -93 -779 -217 -509 -186 -670 -233 -755
-223 -84 11 -268 66 -498 151 -456 168 -574 206 -760 244 -278 56 -563 43
-890 -41 -305 -78 -653 -260 -912 -477 -459 -384 -788 -967 -914 -1620 -54
-279 -61 -369 -61 -782 0 -418 7 -513 65 -855 117 -688 385 -1438 732 -2045
139 -243 467 -708 665 -943 147 -174 351 -364 503 -467 76 -52 219 -122 300
-148 116 -37 181 -45 337 -39 121 4 170 10 268 35 141 36 273 81 446 150 378
152 650 209 944 199 247 -9 461 -60 790 -190 368 -146 523 -182 775 -182 159
0 184 3 275 28 342 94 643 343 1025 852 378 504 640 982 839 1528 33 93 61
175 61 182 0 8 -51 40 -112 72 -227 115 -478 306 -645 489 -309 339 -476 703
-544 1184 -16 113 -16 461 0 580 31 237 90 438 185 635 166 345 402 609 764
856 l103 71 -18 28 c-43 68 -156 202 -248 295 -331 333 -745 538 -1277 631
-189 33 -513 42 -664 19z"/>
</g>
</svg>
