<svg version="1.0" xmlns="http://www.w3.org/2000/svg"
 width="1000.000000pt" height="1000.000000pt" viewBox="0 0 1000.000000 1000.000000"
 preserveAspectRatio="xMidYMid meet">
<g transform="translate(0.000000,1000.000000) scale(0.100000,-0.100000)"
fill="#000000" stroke="none" fill-opacity="0.8">
<path d="M9408 9895 c-2 -3 -85 -20 -184 -40 -98 -19 -213 -42 -254 -50 -161
-33 -227 -46 -280 -56 -30 -5 -84 -16 -120 -24 -71 -15 -254 -51 -310 -60 -19
-3 -62 -12 -95 -20 -33 -7 -77 -16 -98 -19 -22 -4 -69 -12 -105 -20 -37 -8
-116 -24 -177 -36 -60 -12 -150 -30 -200 -40 -49 -10 -139 -28 -200 -39 -110
-21 -212 -42 -400 -80 -55 -11 -111 -22 -125 -24 -24 -4 -266 -53 -485 -97
-55 -11 -282 -56 -505 -100 -223 -44 -439 -87 -480 -95 -101 -21 -629 -126
-660 -132 -45 -8 -313 -60 -470 -92 l-35 -7 -3 -1817 -2 -1817 207 0 c115 0
755 7 1423 15 668 7 1301 14 1405 14 105 1 548 6 985 11 437 6 885 12 995 13
l200 2 3 2308 c2 2343 2 2334 -30 2302z"/>
<path d="M3710 8763 c-14 -2 -65 -12 -115 -23 -49 -10 -136 -28 -193 -39 -56
-11 -147 -30 -202 -41 -248 -49 -300 -60 -380 -76 -47 -9 -97 -18 -113 -20
-15 -2 -55 -10 -90 -18 -34 -8 -80 -17 -102 -20 -22 -4 -67 -13 -100 -20 -33
-8 -78 -17 -100 -20 -22 -4 -67 -13 -100 -20 -33 -8 -77 -17 -98 -20 -22 -4
-69 -13 -105 -21 -37 -8 -80 -17 -97 -20 -16 -2 -64 -11 -105 -20 -41 -8 -257
-51 -480 -95 -578 -114 -605 -119 -707 -141 l-93 -20 0 -1476 0 -1475 193 6
c105 3 404 8 662 11 259 3 643 7 855 10 660 9 1310 16 1433 15 l117 0 0 1775
0 1775 -27 -1 c-16 -1 -39 -4 -53 -6z"/>
<path d="M530 3367 l0 -1476 58 -11 c429 -84 547 -108 727 -145 39 -8 86 -17
105 -20 19 -3 64 -12 100 -20 71 -15 254 -51 310 -60 19 -3 64 -11 100 -19 36
-8 115 -24 175 -36 61 -12 153 -30 205 -41 52 -11 187 -37 300 -59 113 -22
248 -49 300 -59 157 -32 374 -75 605 -121 61 -12 141 -28 179 -36 38 -8 75
-14 82 -14 12 0 14 274 14 1774 l0 1773 -272 7 c-150 3 -748 11 -1328 16 -580
5 -1191 12 -1357 16 l-303 6 0 -1475z"/>
<path d="M4227 4793 c-4 -3 -7 -822 -7 -1818 l0 -1813 93 -21 c50 -12 100 -21
111 -21 10 0 44 -6 75 -14 31 -8 76 -18 101 -21 25 -4 72 -13 105 -20 33 -8
78 -17 100 -20 22 -4 65 -13 95 -20 30 -8 75 -17 100 -20 25 -3 70 -12 100
-20 30 -7 73 -16 95 -19 22 -4 72 -12 110 -20 39 -8 120 -24 180 -36 134 -26
266 -52 405 -80 187 -38 293 -59 400 -80 58 -11 150 -29 205 -41 55 -11 143
-28 195 -39 52 -10 140 -27 195 -38 111 -23 269 -54 420 -83 104 -21 232 -47
370 -75 44 -9 92 -18 108 -20 15 -2 57 -11 94 -19 37 -9 81 -17 97 -20 17 -2
65 -11 106 -20 41 -9 88 -18 105 -20 16 -2 60 -11 96 -19 36 -9 81 -18 100
-20 19 -3 64 -12 100 -20 36 -9 81 -18 100 -20 19 -3 64 -12 101 -21 37 -8 80
-17 95 -19 16 -2 62 -10 103 -19 41 -8 125 -25 185 -37 61 -12 151 -30 200
-41 50 -10 100 -19 112 -19 12 0 25 -5 28 -10 3 -6 13 -10 21 -10 12 0 14 305
14 2310 l0 2310 -117 0 c-65 0 -660 7 -1323 15 -663 8 -1671 19 -2240 24 -569
6 -1146 13 -1281 16 -135 3 -249 2 -252 -2z"/>
</g>
</svg>
