<svg version="1.0" xmlns="http://www.w3.org/2000/svg"
 width="1250.000000pt" height="550.000000pt" viewBox="0 0 1250.000000 550.000000"
 preserveAspectRatio="xMidYMid meet">
<metadata>
Designed by Philipp Machac, Copyright 2014, All Rights reserved
</metadata>
<g transform="translate(0.000000,550.000000) scale(0.100000,-0.100000)"
fill="#000000" stroke="none">
<path d="M31 5495 c2 -2 1238 -1240 2747 -2750 l2744 -2745 3474 2 3475 3
-2746 2748 -2747 2747 -3475 0 c-1912 0 -3474 -2 -3472 -5z m7478 -1266 c110
-110 201 -204 201 -207 0 -4 -13 -16 -28 -27 -15 -10 -263 -204 -552 -430
l-525 -410 190 -2 c105 -2 387 0 628 5 240 4 437 4 437 1 0 -3 -293 -321 -651
-705 -359 -384 -699 -750 -757 -812 -58 -62 -102 -115 -100 -118 3 -3 68 -9
144 -13 l139 -7 -458 -228 c-252 -125 -460 -226 -462 -224 -1 1 64 212 145
468 82 256 151 458 154 450 3 -8 22 -60 41 -114 20 -55 39 -106 44 -114 6 -10
130 151 441 573 238 322 430 589 426 592 -3 3 -256 1 -563 -5 -306 -7 -558
-11 -559 -9 -1 1 144 158 324 348 977 1034 1125 1189 1132 1189 4 0 98 -90
209 -201z m-1764 -873 c85 -27 172 -74 243 -133 l43 -36 -32 -33 c-18 -19 -37
-34 -42 -34 -5 0 -28 16 -50 36 -90 76 -251 134 -377 134 -322 0 -601 -275
-603 -595 -1 -158 38 -266 154 -423 121 -164 131 -194 158 -437 10 -86 12 -91
46 -120 38 -32 45 -64 19 -89 -21 -22 -45 -20 -84 7 -46 31 -68 80 -80 178
-29 240 -38 263 -160 429 -150 204 -195 425 -129 635 81 262 271 440 534 501
93 21 261 12 360 -20z m-450 -551 c47 -41 90 -75 94 -75 5 0 21 15 36 33 15
17 41 47 58 66 l30 35 25 -30 c14 -16 42 -48 62 -71 l37 -42 78 64 c65 53 81
61 96 52 12 -7 16 -19 13 -36 -2 -15 -29 -237 -59 -496 -86 -729 -77 -669
-103 -673 -27 -4 -28 4 -6 165 46 355 122 958 120 960 -1 2 -33 -21 -70 -50
l-68 -52 -62 69 -62 68 -54 -65 c-30 -36 -59 -66 -65 -66 -5 0 -35 22 -65 49
-30 27 -56 47 -58 46 -3 -3 84 -596 138 -940 26 -166 26 -186 0 -186 -24 0
-22 -10 -65 285 -19 132 -44 301 -55 375 -11 74 -30 196 -41 270 -17 120 -31
208 -44 293 -3 15 -3 27 0 27 2 0 42 -34 90 -75z m932 8 c5 -16 8 -75 8 -133
-1 -172 -45 -295 -159 -449 -92 -124 -123 -196 -222 -519 -29 -93 -43 -110
-78 -96 -43 16 -43 78 0 94 33 13 42 41 58 188 20 176 48 248 151 383 128 167
170 319 142 507 l-8 52 50 0 c47 0 51 -2 58 -27z m-425 -1238 c3 -3 0 -25 -7
-48 l-12 -42 -248 -3 c-220 -2 -250 0 -267 14 -21 19 -24 54 -6 72 9 9 83 12
273 12 144 0 264 -2 267 -5z m-50 -185 l-16 -50 -231 0 c-166 0 -234 3 -243
12 -17 17 -15 48 5 70 15 16 36 18 259 18 l242 0 -16 -50z m-32 -103 c0 -2 -7
-24 -16 -50 l-16 -47 -207 0 c-221 0 -231 2 -231 50 0 48 9 50 247 50 123 0
223 -1 223 -3z m-54 -159 c-4 -13 -9 -38 -13 -55 l-6 -33 -121 0 c-134 0 -166
11 -166 55 0 45 32 55 178 55 l134 0 -6 -22z"/>
</g>
</svg>
