<svg version="1.0" xmlns="http://www.w3.org/2000/svg"
 width="1250.000000pt" height="550.000000pt" viewBox="0 0 1250.000000 550.000000"
 preserveAspectRatio="xMidYMid meet">
<metadata>
Designed by Philipp Machac, Copyright 2014, All Rights reserved
</metadata>
<g transform="translate(0.000000,550.000000) scale(0.100000,-0.100000)"
fill="#000000" stroke="none">
<path d="M2772 2751 l-2743 -2746 3475 -3 3474 -2 2744 2745 c1509 1510 2745
2748 2747 2750 2 3 -1561 5 -3475 4 l-3479 -1 -2743 -2747z m3462 796 c42 -63
68 -198 116 -587 69 -574 88 -717 95 -741 8 -24 42 -25 49 -1 3 9 17 112 31
227 15 116 30 228 35 250 4 22 11 67 14 100 16 147 59 427 77 505 11 47 28
100 39 118 18 29 24 32 69 32 27 0 53 -6 59 -13 35 -41 83 -257 128 -572 21
-151 52 -345 58 -370 2 -5 6 -32 11 -60 11 -68 22 -95 39 -95 21 0 23 5 50
146 14 71 41 211 61 311 36 187 76 307 116 349 28 30 97 34 121 7 33 -38 63
-116 119 -309 75 -259 85 -286 113 -282 16 2 34 29 73 106 47 95 104 179 142
210 18 14 89 16 124 3 14 -5 58 -39 98 -76 41 -36 84 -68 96 -72 23 -5 31 -4
108 16 46 12 375 15 375 3 0 -4 -22 -29 -50 -55 l-50 -47 -92 0 c-51 0 -113
-6 -138 -14 -25 -7 -79 -14 -122 -15 -91 -3 -134 15 -217 91 -29 27 -61 48
-69 46 -15 -3 -92 -104 -92 -121 0 -5 -20 -50 -44 -101 -55 -114 -79 -136
-153 -136 -53 0 -54 1 -83 46 -16 26 -41 78 -56 117 -24 64 -36 102 -93 311
-23 81 -43 108 -65 86 -15 -15 -53 -190 -96 -435 -22 -126 -71 -321 -95 -378
-25 -59 -107 -77 -144 -31 -48 61 -70 156 -131 554 -26 174 -47 303 -55 352
-2 9 -7 36 -10 61 -5 35 -12 47 -28 51 -12 3 -25 2 -28 -2 -4 -4 -19 -97 -33
-207 -15 -110 -33 -243 -41 -295 -8 -52 -24 -169 -35 -260 -12 -91 -30 -212
-41 -270 -36 -192 -57 -230 -126 -230 -58 0 -88 66 -122 270 -11 63 -22 142
-26 175 -4 33 -10 85 -15 115 -11 69 -15 101 -40 330 -11 102 -28 244 -38 315
-17 127 -18 130 -44 133 -36 4 -32 24 -104 -608 -56 -498 -98 -704 -149 -724
-67 -25 -114 16 -140 121 -18 73 -65 378 -90 583 -23 187 -52 406 -66 488 -10
66 -13 72 -35 72 -29 0 -26 12 -70 -275 -77 -509 -103 -644 -139 -716 -25 -49
-39 -59 -84 -59 -70 0 -108 91 -170 410 -82 423 -90 454 -118 458 -17 3 -24
-8 -46 -75 -14 -43 -39 -128 -56 -190 -43 -156 -67 -212 -109 -255 -31 -33
-42 -38 -82 -38 -63 0 -84 24 -174 200 -40 79 -80 148 -88 154 -22 13 -55 -5
-116 -62 -61 -58 -103 -73 -195 -71 -45 1 -87 6 -94 11 -6 5 -50 12 -97 15
-47 3 -86 8 -86 10 0 3 22 27 49 54 56 56 79 60 183 33 33 -8 73 -12 89 -9 16
4 55 33 89 66 89 89 160 110 227 70 43 -27 68 -63 138 -199 38 -74 67 -118 78
-120 22 -4 36 28 77 179 47 172 109 360 131 396 22 35 37 43 84 43 75 0 121
-98 175 -375 11 -60 26 -130 31 -155 6 -24 19 -90 29 -145 20 -111 40 -172 47
-142 3 9 11 17 19 17 8 0 14 2 14 4 0 11 41 257 50 301 6 28 26 158 46 290 43
292 66 393 100 445 23 35 32 40 64 40 89 0 119 -94 180 -565 73 -562 89 -678
99 -688 14 -14 40 4 45 31 6 28 34 263 86 711 17 146 33 268 35 271 2 3 11 51
20 106 31 199 59 254 125 254 30 0 43 -6 54 -23z"/>
</g>
</svg>
