<svg version="1.0" xmlns="http://www.w3.org/2000/svg"
 width="1250.000000pt" height="550.000000pt" viewBox="0 0 1250.000000 550.000000"
 preserveAspectRatio="xMidYMid meet">
<metadata>
Designed by Philipp Machac, Copyright 2014, All Rights reserved
</metadata>
<g transform="translate(0.000000,550.000000) scale(0.100000,-0.100000)"
fill="#000000" stroke="none">
<path d="M2772 2751 l-2743 -2746 3475 -3 3474 -2 2744 2745 c1509 1510 2745
2748 2747 2750 2 3 -1561 5 -3475 4 l-3479 -1 -2743 -2747z m3258 1659 c36 -6
77 -13 93 -16 l27 -6 0 -134 0 -133 33 -17 c17 -9 53 -32 78 -50 l46 -34 117
55 c64 30 120 55 124 55 6 -1 112 -151 121 -173 2 -5 -38 -51 -88 -101 l-92
-92 17 -69 c9 -39 19 -81 23 -95 5 -21 24 -31 134 -69 105 -36 127 -47 121
-60 -4 -9 -14 -56 -23 -106 l-17 -90 -137 -3 c-75 -1 -137 -7 -137 -11 0 -5
-21 -40 -46 -78 -26 -37 -47 -72 -47 -78 0 -5 25 -61 56 -122 l56 -113 -32
-23 c-18 -13 -59 -43 -92 -66 l-59 -42 -96 95 -95 95 -45 -15 c-24 -9 -66 -18
-92 -21 -53 -6 -46 5 -108 -173 -13 -36 -27 -69 -31 -74 -5 -5 -52 -1 -113 9
l-106 18 0 133 0 132 -47 28 c-27 15 -63 38 -81 52 l-33 25 -119 -56 -120 -56
-23 32 c-13 18 -43 59 -66 92 l-42 59 96 96 96 96 -15 42 c-9 24 -18 64 -22
91 l-6 48 -117 42 c-142 51 -146 54 -136 77 5 11 16 57 25 104 l16 85 134 2
c92 1 136 5 138 13 3 7 24 41 48 77 24 36 44 69 44 74 0 4 -22 56 -50 115 -27
59 -50 112 -50 118 1 11 163 126 178 126 5 0 48 -41 97 -91 l89 -91 56 16 c31
9 68 16 82 16 39 0 53 20 88 127 41 124 47 135 68 129 9 -3 46 -10 82 -16z
m769 -1522 c23 -130 26 -137 50 -143 14 -3 56 -20 93 -37 l67 -30 112 82 112
82 78 -78 c44 -43 79 -83 79 -89 0 -6 -34 -59 -76 -118 l-76 -107 36 -84 c20
-46 36 -88 36 -93 0 -6 35 -16 78 -22 42 -6 105 -16 140 -22 l63 -11 -3 -117
-3 -116 -137 -24 c-130 -23 -137 -26 -143 -50 -3 -14 -20 -56 -37 -93 l-30
-67 82 -112 82 -112 -79 -79 c-45 -45 -84 -77 -93 -75 -8 2 -61 37 -118 77
l-103 72 -67 -30 c-37 -17 -79 -34 -93 -37 -24 -6 -27 -13 -50 -143 l-24 -137
-117 -3 -116 -3 -12 73 c-7 40 -17 102 -24 138 l-11 64 -50 19 c-28 10 -69 27
-92 38 l-43 21 -102 -73 c-57 -40 -110 -74 -118 -76 -9 -2 -48 29 -93 75 l-79
79 81 110 80 111 -33 78 c-19 44 -36 86 -39 95 -4 12 -33 21 -104 34 -54 9
-114 20 -133 24 l-35 7 -3 116 -3 116 63 11 c35 6 96 16 136 22 51 9 76 17 79
28 3 9 20 51 39 95 l33 78 -75 106 c-41 58 -74 111 -74 117 0 6 35 46 79 89
l78 78 112 -82 112 -81 52 24 c29 14 71 30 93 37 l42 13 11 76 c6 42 16 104
22 139 l11 63 117 -3 116 -3 24 -137z m-1618 -724 c36 -63 47 -74 69 -74 15 0
48 -3 72 -6 l46 -6 52 78 c29 44 55 81 57 83 2 4 119 -47 151 -65 2 -1 -8 -45
-22 -97 l-26 -96 48 -50 48 -50 65 11 c35 6 79 12 98 12 34 1 36 -1 62 -69 16
-42 23 -74 18 -79 -5 -6 -43 -31 -84 -56 l-76 -45 -4 -72 -3 -72 79 -52 c43
-28 79 -56 79 -61 0 -4 -16 -40 -36 -79 -22 -45 -40 -69 -48 -66 -7 3 -49 15
-93 27 l-80 21 -53 -50 -52 -50 17 -92 c9 -50 13 -95 8 -99 -10 -9 -126 -50
-141 -50 -6 0 -32 36 -58 80 -44 77 -47 80 -82 80 -21 0 -53 3 -73 6 -36 6
-38 5 -79 -57 -71 -107 -61 -102 -138 -67 -37 17 -70 34 -74 37 -4 4 4 48 17
98 l25 92 -49 52 -50 52 -68 -12 c-127 -23 -121 -25 -149 49 -13 36 -24 72
-24 80 0 9 34 34 80 58 77 42 80 45 80 80 1 20 3 53 6 73 5 36 4 38 -75 93
l-80 56 31 68 c16 37 33 71 38 75 4 5 41 -1 82 -12 41 -12 83 -21 94 -21 11 0
42 20 69 45 l49 44 -18 92 c-9 50 -14 94 -11 97 16 17 141 58 152 50 6 -5 31
-43 54 -84z"/>
<path d="M5767 3995 c-140 -39 -250 -129 -312 -259 -34 -71 -39 -90 -43 -177
-4 -79 -1 -109 17 -167 68 -224 294 -368 523 -332 81 12 195 63 244 109 106
97 154 197 161 337 7 112 -16 198 -76 291 -105 163 -329 249 -514 198z m243
-120 c105 -37 204 -147 230 -256 18 -73 7 -180 -24 -243 -125 -251 -466 -282
-627 -57 -145 202 -52 482 186 561 69 23 161 21 235 -5z"/>
<path d="M5810 3662 c-72 -38 -100 -148 -53 -211 91 -122 273 -70 273 78 0
116 -118 186 -220 133z"/>
<path d="M6533 2585 c-172 -47 -313 -189 -358 -360 -45 -173 8 -358 139 -483
203 -195 511 -190 704 12 191 198 191 494 0 692 -125 130 -315 185 -485 139z
m257 -130 c108 -37 206 -148 236 -265 39 -153 -22 -311 -156 -402 -172 -118
-403 -72 -522 102 -118 172 -72 403 102 522 98 67 226 83 340 43z"/>
<path d="M6595 2246 c-94 -41 -124 -168 -58 -247 75 -88 208 -73 261 31 12 24
22 56 22 70 0 14 -10 46 -22 70 -39 76 -127 109 -203 76z"/>
<path d="M5167 1941 c-167 -55 -272 -229 -238 -394 34 -165 159 -278 323 -293
107 -10 238 47 302 130 53 70 70 123 71 221 0 78 -4 98 -28 150 -74 158 -265
240 -430 186z m185 -71 c108 -30 198 -146 198 -255 0 -106 -65 -212 -157 -259
-53 -27 -142 -31 -204 -11 -104 35 -189 151 -189 260 0 114 89 232 200 266 37
11 110 10 152 -1z"/>
<path d="M5199 1681 c-24 -24 -29 -38 -29 -76 0 -66 39 -105 105 -105 38 0 52
5 76 29 24 24 29 38 29 76 0 66 -39 105 -105 105 -38 0 -52 -5 -76 -29z"/>
</g>
</svg>
