<svg version="1.0" xmlns="http://www.w3.org/2000/svg"
 width="1250.000000pt" height="550.000000pt" viewBox="0 0 1250.000000 550.000000"
 preserveAspectRatio="xMidYMid meet">
<metadata>
Designed by Philipp Machac, Copyright 2014, All Rights reserved
</metadata>
<g transform="translate(0.000000,550.000000) scale(0.100000,-0.100000)"
fill="#000000" stroke="none">
<path d="M31 5495 c2 -2 1238 -1240 2747 -2750 l2744 -2745 3474 2 3475 3
-2746 2748 -2747 2747 -3475 0 c-1912 0 -3474 -2 -3472 -5z m7840 -1737 c-26
-73 -73 -208 -105 -300 -32 -93 -61 -168 -65 -168 -4 0 -30 34 -59 75 -29 41
-57 75 -62 75 -8 0 -611 -418 -927 -643 l-42 -30 -360 208 c-198 114 -363 208
-367 207 -4 0 -202 -337 -440 -748 l-432 -749 -85 -3 -85 -3 -167 168 -167
168 149 3 149 2 399 693 c357 620 542 937 549 945 2 1 191 -106 420 -238 250
-145 421 -238 429 -233 36 21 745 519 760 533 18 17 17 20 -32 89 -28 39 -51
73 -51 76 0 3 143 5 319 5 l318 0 -46 -132z m-251 -478 c37 -55 44 -60 77 -60
22 0 41 7 49 18 11 14 13 -140 14 -925 l0 -943 -140 0 -140 0 0 959 0 960 33
25 c17 14 40 26 49 26 10 0 35 -26 58 -60z m-320 -1015 l0 -895 -140 0 -140 0
0 797 c0 727 1 798 17 815 9 10 20 18 24 18 5 0 44 27 88 60 44 33 83 60 86
60 4 0 18 9 32 20 14 11 27 20 29 20 2 0 4 -403 4 -895z m-1372 -38 l2 -857
-140 0 -140 0 2 653 3 652 41 65 c22 36 59 97 81 135 108 188 125 216 136 212
9 -3 13 -216 15 -860z m264 704 c19 -10 71 -40 116 -66 l82 -48 0 -723 0 -724
-140 0 -140 0 0 806 0 806 24 -16 c14 -8 40 -24 58 -35z m648 -826 l0 -735
-137 0 -138 0 0 670 0 670 42 0 c40 0 104 35 202 111 13 11 25 19 27 19 2 0 4
-331 4 -735z m-1370 -250 l0 -485 -140 0 -140 0 0 246 0 246 35 59 c65 109
102 173 171 296 38 68 70 123 72 123 1 0 2 -218 2 -485z"/>
</g>
</svg>
